<mxfile host="app.diagrams.net" modified="2021-04-20T21:22:59.496Z" agent="5.0 (X11; Linux x86_64) AppleWebKit/537.36 (KHTML, like Gecko) Chrome/90.0.4430.72 Safari/537.36" etag="eJ4_jbYGD5BlRSkjd2Lv" version="14.5.1" type="github">
  <diagram id="RezBnJVLrrGMXuOS7vEP" name="Page-1">
    <mxGraphModel dx="738" dy="795" grid="1" gridSize="10" guides="1" tooltips="1" connect="1" arrows="1" fold="1" page="1" pageScale="1" pageWidth="850" pageHeight="1100" math="0" shadow="0">
      <root>
        <mxCell id="0" />
        <mxCell id="1" parent="0" />
        <mxCell id="Z96atvx6i4o4yFbFgXG3-1" value="" style="group;fontColor=#BFBFBF;strokeColor=none;fontFamily=Helvetica;" vertex="1" connectable="0" parent="1">
          <mxGeometry x="1058.67" y="640" width="411" height="405" as="geometry" />
        </mxCell>
        <mxCell id="Z96atvx6i4o4yFbFgXG3-2" value="&lt;font color=&quot;#374548&quot;&gt;Birdhouse WPS server&lt;/font&gt;" style="shape=folder;fontStyle=1;spacingTop=-3;tabWidth=180;tabHeight=30;tabPosition=left;html=1;fontSize=15;align=left;verticalAlign=top;spacingLeft=4;strokeWidth=4;fontColor=#666666;strokeColor=#374548;" vertex="1" parent="Z96atvx6i4o4yFbFgXG3-1">
          <mxGeometry x="20" y="20" width="300" height="290" as="geometry" />
        </mxCell>
        <mxCell id="Z96atvx6i4o4yFbFgXG3-21" style="edgeStyle=orthogonalEdgeStyle;rounded=0;orthogonalLoop=1;jettySize=auto;html=1;exitX=1;exitY=0.5;exitDx=0;exitDy=0;entryX=0;entryY=0.5;entryDx=0;entryDy=0;startArrow=blockThin;startFill=1;endArrow=blockThin;endFill=1;strokeWidth=2;strokeColor=#4D4D4D;" edge="1" parent="Z96atvx6i4o4yFbFgXG3-1" source="Z96atvx6i4o4yFbFgXG3-4" target="Z96atvx6i4o4yFbFgXG3-6">
          <mxGeometry relative="1" as="geometry" />
        </mxCell>
        <mxCell id="Z96atvx6i4o4yFbFgXG3-4" value="" style="shape=image;verticalLabelPosition=bottom;labelBackgroundColor=#ffffff;verticalAlign=top;aspect=fixed;imageAspect=0;image=data:image/png,iVBORw0KGgoAAAANSUhEUgAAA3sAAAHaCAYAAAC5ElCBAAAABmJLR0QA/wD/AP+gvaeTAAAACXBIWXMAAAsTAAALEwEAmpwYAAAAB3RJTUUH3wwGFCQngOrp5gAAIABJREFUeNrs3X10VfW97/tvGw105QHCOKFZAa8LoiTD0GpJgu093TWE9vTsDQj77m7xAVvRtmoVa2sfHNdiQdsxtO5aLa2I3SK7gIDd3YMInvYcNQn7dp9bCLE+gDeLCkmHyQom9xKaxYpGzeH+MVnkaT3MOddcc/5+c75fYzhaUcxiPc3fZ35/v+/3I2fPnj0rAAAAAABf+ShPAQAAAAAQ9gAAAAAAhD0AAAAAAGEPAAAAAEDYAwAAAAAQ9gAAAACAsAcAAAAAIOwBAAAAAAh7AAAAAADCHgAAAACAsAcAAAAAhD0AAAAAAGEPAAAAAEDYAwAAAAAQ9gAAAAAAhD0AAAAAAGEPAAAAAAh7AAAAAADCHgAAAACAsAcAAAAAIOwBAAAAAAh7AAAAAEDYAwAAAAAQ9gAAAAAAhD0AAAAAAGEPAAAAAEDYAwAAAAAQ9gAAAACAsAcAAAAAIOwBAAAAAAh7AAAAAADCHgAAAACAsAcAAAAAhD0AAAAAAGEPAAAAAEDYAwAAAICgGukXGToqMppw/UdfwLMPAAAAAA4baBXp2S0yMmD8/bRykU9tIewBAAAAgJaGu0Te2iQy3D3x10cGjH8WmkfYAwAAAADtgt7R9SKjw6n/+bTZrj4czuwBAAAAQL6DXmG5SEGRqw+Jyh4AQC9DR8/975H0/07pQuN/iyKuX1gBAAE00CLSvTV90BMRmVHr+sMi7AEA1DbSLzJ4SOTUwbGgl9WeiX8bihhbZ4rmGX8l/x4AACeC3vFfZP/3witcf2gfOXv27FleIQCAkiGvZ4/RzSxfSmuNKmDpQuP/AwCQj6BXWity2YOEPQAApGeP8ZfbSmuNLmkXnNv6eUFR5q5p08qpEAIAQS+zgpBI7YOuduEk7AEA1HR8U36reW4KRcaCY8pwuTD9PyNoAoD+QU9EpOpOkfImTx4mYQ8AQNDzo2xBc9rssbCY/P8XhDy58wwAWjm532jGYsbca0TmXuvZQ6VBCwBADQMtBD0nTR7mO0WGZjfJqmHpQqOhTWktXU0BQMTaTcnyRk+DngiVPQCACkYTIq/cmrllNbw1rVyk7EqR2Uuo/gEg6JkJelV3ef6QCXsAAO/17BbpeY7nQRehiMjc1SKzruS5AOB/owljWHrWHRPnlC0Wqb5XiYdO2AMAeH8Rpaqnp9JaY0HDFk8AfjXcJfLWJvNBT5GKXtJHeQUBAJ7qbyHo6WroqHG3ezTBcwHAh99xR6xV9BQLeoQ9AID3aMqit+Fuke6neR4A+EvPHpE37zd/M1LBoCdCN04AgKdBocv8HVOoa+gozwEAfxhNGNs2Bw+Z/z2KBj3CHgDAW337eA78gDN7APxg6IhI9CFrRwsUDnqEPQCAd0b6RQbaeB78oLSW5wCAvkYTIm/vMYalW1F1p0h5k9J/NMIeAMAbPbt5DvygICRy0bU8DwD0dOqgMT/PaqMwDYIeYQ8A4OEF9hDPgR+CXu2DbOMEoJ+hI0YTFqtnjpPfe6F5WvwxCXsAAG8wbkFvoYjIJeu0WfAAQE4hT9PvPcIeAMAbBSECn44Ky0UuWq3F9iUAEBHjjPjgIaMp2MiAvf9Gaa1I9b3a7WQg7AEAvFG+ROTkCzwPugS8GbVGwCtdyPMBQF2jCZFEtxHwEl1GJS/XET8Vy0Qit2j5dBD2AADeuOhaYxsNc/bUEoqITJstUhQxtioVzTP+HgC8NNI/VpUb7hL5MGH8Ndxl/Fqiy/ndIgUhkcjNWu9k+MjZs2fP8u4BAHhiNGHMNGIot7UwdoGFbUQFRUZwS/nr486dULED9Dd4aKyaNTkgjR+RMm32pL/K3b+pM/57f6Tf+Cvl/x/w5rksLBepuVf7c8mEPQCA93p2i/TtD+4ZvvEBLrkgGx/GkgsyAEj5HbrHOI+W63do8rto8s2fonmpz6olQ+Vk4ytuSfmovOVL2WKjEYsPOg0T9gAAahhNGIuV/laR9weC8+de8H2RWVfy+gNeGV9hShdeVDbQ4l31y48uXisSXuGbPw5hDwCgnlMHjUXXqUNqBb9sFbjurdbPIDZsZ04d4JbRhLGLYOgI28cx9fvdh+NkaNACAFDPrCuNvyK3GGc2ho4YW4CGu53fCuTkFsrkOROzSmsJeoCbjq6nKRSm0rjbJmEPAKC3abONTmjlk349ud0q0WXcrT//60enBqpcApxZQ0esh9Cyxby+gFt6dhP0MFFhuVHN83GDKsIeAEBPyYuzKhfpUwet/54ZdMAEXDPQynOAMXOvMc7m+Xx3BWEPAAAnWD3/U1juu7MhgLK8bOEPtfj0bB5hDwCAfC4krW4Pm1HL8wa4+RlFsBWWi1y0WusB6YQ9AAC8YKddexnjFgDXJLp4DoKqICQSXh6ILZuEPQAA8uHUIeu/h/N6gHvGN3ECIY+wBwAATLNa2WPkAuDyZ5SZeoFRWC4ye0ngQx5hDwAAp4IeIxcAtXFmz98KQiKzFhvn8UrZNUHYAwDAKYxcADQIezY6cZY3Oj+P065Et8jgoeC+foXlItMnvRbJHRIzFtLZmLAHAECeMHIBUNuwzeYskVvU2gbYs1ukv1Xkfc1GSBSERIrmTQ1q44XmiVww7rkumscWTMIeAAAeY+QCoL73bGzhLAipFzbmXmv8NdxldBcd6Z86PzDRZX1beTZTgllkYjCbNntiBXTy34OwBwCAlhi5AKjPTmWvSOHqe2ievd0Bk7+vPkwYYXH8n/WCInYeEPYAAICIMHIB0IGd5izTyv33PNC4JJA+ylMAAIBNjFwANAh7Ns64sQ0RhD0AAAIe9Bi5AKgvYWMbJ1UwEPYAAAgwRi4A6htN2GtYQmUPhD0AAAKMkQuA+hI2xy4Q9kDYAwAgoBi5AOjzWbUqFOF5A2EPAIDAYuQC4N+wR1UPhD0AAALMzsiFWYQ9wHVWt1uLiBRFeN5A2AMAILgLSIuVPbpwAt74MGH993C2FoQ9AAACHPSsdvcr5bwe4AmrZ2tFRC5gFiYIewAABJOdkQts4QTcZ+e8nggz9kDYAwAgsOyMXKDhA6BH2Css53kDYQ8AgMAuHq1uC5vFeT3AE3a65k7nxgwIewAAsHg0iy1hgDfsNGfhfC0IewAABBQjFwB92GnOUkBzFhD2AAAIJkYuAPqwc2aviLELIOwBABDMoMfIBUCjsDdA2ANhj6cAAAATGLkA6MPO+dqCENs4QdgDACCYi0dGLgDasNOchaoeCHsAAAQQIxcAvQx3Wf8905ixB8IeAADBw8gFQC+Jbhthj0o8CHsAAAQPIxcAvYzambHHDRoQ9gAACB5GLgCafWaPWv89VPZA2AMAIIBBj5ELgD7sVPUIeyDsAQAQQIxcAPSSsNGcJRTheQNhDwCAwGHkAuD/sMdnFoQ9AAAChpELgH7sbOMsivC8gbAHAECg2NnCSUc/wFt2mrOEGKgOwh4AACwas+G8HuCtkX7rv+eCIp43EPYAAAiUQYvz9Ri5ACgQ9gas/x4q8iDsAQAQILa2cDJyAfDUsI3mLIXlPG/wrQt4CgAASMHqIHURkYFW69VAAM750EZzlul04gRhDwCAYLET2qx27gTgPSry8DG2cQIAMNlIv71zPwD0U0BzFhD2AAAIDjvn9QDoqYixCyDsAQAQHHZGLgAg7AGEPQAAFEeTFSAYCkJs4wRhDwCAwGALJxAcVPVA2AMAIEDsjFwAoKdpzNgDYQ8AgGAYTbCFEwhU2GPGHvyNOXsAAIiIDHeJvLWJkQtAkJQu5DkAYQ8AAN8HvaPrRUaHeS6AIKGyB8IeAAA+duqgyPFNBD2AsAcQ9gAA8I2BFpHjv+B5AIIoFOE5AGEPAABf6tlj/AUgmKjqgbAHAIAPHd8kMtDK8wAEWVGE5wCEPQAAfGM0YXTcZLwCgBAD1UHYAwDAP0Hv6HqR4W6eCwAiFxTxHICwBwCA9oa7RKIPMUMPwBhm7IGwBwCAD4IeM/QAjFdYznMAwh4AAFobaBHp3up80CutFbnsQZ5fQAXDXSKv32Pt90ynEycIewAA6B308jVDj/lcgDre67f+e0pred5A2AMAQEvdW0VO7s/ff7+ILn6AMoa7rP+eApqzgLAHAIB+3JihxzBmQB0jNip73LABYQ8AAI2MJoyOm0NH8/+z6OIHKBT2bHTZJeyBsAcAgEZBz60ZepzXA9Ri9QZPQYhtnCDsAQCgBbsz9MoWGyHR6kKRLZyAOkYT1n8PVT0EyEd5CgAAWge9o+utB72KZSLV94p8aGehGOF5B1SRsNGcZRoz9hAcVPYAAHqyO1qh6k6R8qZzYbHb+u/nvB6gDjvNWajOg7AHAIDPgl5ByKjmJcOanXbtImwBA1QKenY673LDBoQ9AAAUZWe0Qigicsk6kdC4oGZn+xeNHQA1Ql7PHvsjVi7gMwzCHgAA/gl6tQ9ODWnM5gKCFfLOfyfwOQZhDwAAddgdrVDeKFJ1V+p/ZmceX2ktrwWga8gTYXQKCHsAAPgi6F28ViS8Iv0/t7ONk4oAoGfIS6I5Cwh7AAAoIjlaYXTY/O8pCIlUrROZdWXmAGnlv5k0nYUioGXIS2J0Cgh7AAAoYOiIMSzdatCrfTB7BS5hsxMnlT1Az5CXRGUPhD0AADxmZ7RCukYsToU9zusB+oY8wh4IewAAKODkfpHurdZ+T3mjSOQW82MR7MzYm1bOawPoGvKSmLEHwh4AAB6xM1ph7jUic6+1uMgcsP7Y2MIJ6BvyREQKuWEDwh4AAO4bTRjVPKuLv6o7RcqbrP88O2MXmLEH6BnykmiwBMIeAAAeBD2roxXMNmJJt+C0g+1fgP3PeN9+I+h5iRl7IOwBAOCikX6j46aVoBeKiFTfa7/Rgp3mLGz/AuyHvL599kadOI3mLCDsAQDgEjsz9MoWi1yyznwjlnQ/1yq2cAJqhLyCkEh4uciHCZGTL/A5Bgh7AADlnDpoNGOxshAsbxSpuiv3n53othH2IrxmgAohL7zCuNnTs9vG55iwB8IeAAD5ZWeGnt1GLKnYqezRiRNQI+Ql2blpk8uOAICwBwBAFj17rDVpKAgZ5/OcbI5iZ+wCFQFAjZA3/mdbUVrL6wXCHgAAeWN1hl4oYpzPc7KqNnTE3qKTxg6AGiEv6UOLYW8aTZZA2AMAID8Lw7c2iQweshb0ah90ftuVnbELVPUAdUJekpUOviLcsAFhDwCAvCwOrc7Qc6oRSyp2xi4wmwt8jtUJeXYxJxOEPQAAHDTcZVT0rAS9i9cai768PaZu67+Hyh4IeWqFPDsV+gtozgLCHgAAzgU9KzP0CkIikZud67iZToIZe4C2IS+XsEdHXRD2AABwwECLSPdWa0Gv9sH8L8ZG+u0tXFkkgpCnRsizi63YIOwBAOBQ0LMyQy9fjVjShT0WiYD+Ic9qhZ7mLCDsAQCQo+6tIif3m//3yxtFIre4d5ffztiFIsIefG6gVaRnt735k159xq3O2ONzDMIeAAA5sDpDr2KZsQh0k53KHhUBEPLshby51+bv82N5xh6fYxD2AACwbjQhEn1IZOio+d9TdWf+G7Gkkui2/nto1w5CnjohL4kZewBhDwDgQtCzMkPPrUYsTi0QRejECUKeSiHPLm7agLAHAICV4NRlVPTMLhxDEZHqe71bDA7bGLlQWO5+10CAkJedlS3ZheW8B0DYAwDAUnCyMkOvtNYIel4GJzvz9aaz9QuEPKVC3vmwN8DnGCDsAQCcX0BanKFX3ihSdZf3j9tOc5bSWl5vEPJUCnl2MD4FhD0AAEwGPSsz9LxqxJKKlQYy5xeJnNcDIU+5kGd1hArNWUDYAwAgCyujFQpCxrZNlZoi2Kns0ZwFhDz9Knl8jgHCHgAgT0GvsFyk5l61qmKjCXsLYSoCIOSp9+e2OmOPsAfCHgD43HCXyIfnzphNK2cRbyUkWRmtEIoYoxVU62BppzkL5/VAyFP3+9yKIHTUHX+NO7/CD7EVHYQ9AJoEjuQw7PFnNRJdxj8TMbboObXwSS7yC4rG7ghPmz22+AlKCLAa9FRpxOJU2KOpAwh5+tPl+zrVde7DxMRgm4/r3ORrXXLrPTe7CHsA4PhFbjRhLMqTF7gPE/aGYOdqfCOPwUOp/52CkHFxDM0z2nqH5vmrYmh1tMLca4yFosp/Hquo/kIVQ0eMrdSEPEPCwnVhmkIz9oaOngts/WM3KxNd5r9n83Wdm3Ct2zM1FCbDYNG56xzVQsIeAGS92CW6jAW4Vxe6nAPqsPFnSdXhsbTWuDtaNG/sQunXoFcQEoncrE7HzXTsLJI55wMVQl7PHnudZP0Y8s5//1o4s+f2ny958zJ5fTsf7IY1fQ8enRQGx13nQvNEZiw0dkFwc4ywByBgkhe8oSPGX05uP9Hh4jh+cRaKnAt+C40LpMoXRSujFQpCxvk8He7y2lksq9RJFIQ8Qp49+fwcj/Qbu08SXWM3MIN2nTu5f+x6ULpQZNaV6l/nCHsAYPOLP3knc+hIcC54Zgx3G38lu1mGIsYFcdZitYLSyf3GsHQzVG3Ekm5BZhXn9UDIU/t6Y3qVW+Tszx3uEvnruZuYulbr8mF02Kj+JSuAoYgR/mYsFClbzPND2AOgncFDxgVvuCs/C5MghL+ePcb5h7Irx+6GesXKaIWyxSKXrNNne2qC83og5AX2PW33htpowng9uM7ldp07ud+o+s06d50j+BH2AKi6GDk6tiWTi55zRgaMi2HygljeJBJe7t7CbDRhVPPMBr2KZSKRWzRbdNgIe0UR3psg5Cn5nWmhUm+1Qp+8iTl0xJvmYH41OmxcYwZax4JfeDmNXgh7ADxfIJ86RLhz+4KYDH6ltUbwK1+S36BnZbRC1Z3qN2JJxUrnviTO64GQp3/Yy/YccJ3zNviFIiLhFcaRhiDMQiTsAfDc4CGRUwc5c6fEYvDc4ffup42LYfkSZxdvI/0i0YfMBT2dGrGkW9BZxTZOEPL0N7lCn9yaeeqg8Rdn7jz+bu42jhB0e7CrhbAHIBBG+scufOnmycFbo8PG4rBnjxH45q7O/WJoZbRCKGKcz9N5u43VGxcFIRYcIOSpysoZ3Gmzjetccnsm1zl1r3PJXS1OXedA2AMCHfAGWo2Ax5kEvSS3vuRyMRw6YlT0zAS90lqR6nv13l4zdMT672G+Hgh5CgcDCzP2evaIjPyC92HQrnMg7AGBDHiDh0T6Wwh4frkYnjpobO8MLzcfxqzM0CtvFKm6yx/vfau87IoKQh4hL7MPLYQ9jiP4I/RFbuZMH2EPAAEvYJLbO/v2iVx0rUjF8sz/fnIrqBm6NmJJhbELIOT5C9ez4IW+5M3Nuat5Pgh7QNADQML4YiTgBSv0dW81XvN0Z+vMztArCIlUrTPaYgd5Ycg2ThDyALWucz17jN0pVevolmzDR86ePXuWpwHQWLKCx+FzzF09trVzNCHy1iZz74vCcpGae/0396h9jfWOe5/+N95HMGek37jZko/vXkLeRMkKD9c5VCwXuWg1WzsJe0AAFhl9+407XbSPxnjTyo3B52/vNlfZCkWM0Qp+u3CO9Iv86TZrv6e0VuSyB3kPIft7q2ePuYo5Ic++4S6R/lauc0h9naPKZxrbOAFdjCaMAbB9+9imiQwL0QGj46bZhaUfGrGkW5DbWUAAhDyuc1D/Ovfm/UaVL3IzzwdhD9DccJdRxWMIrHGujDu8zph7jbG49Cs7YxdCnNcDIc+zz2uyAyNg1sn9xnvHj7tTCHtAAAy0+ufuZkForPFFKCJywbkv5WmzxxY5FxQ5s9ge7hprzz1+wZ9snpDoCnZgLAgZd0L90nEz0wLdKpqzgJDnnmQVr2e3P8YkFJaLTJ899ToXmjf2/5PfM7kEk9HExE7DI/1j33dBvM4Nd4u8cqsxF5ZtnSlxZg9QbXGRDHk6fVEnw1xBkUhR5Nz/znMuwOXD0BEjFA53nbtYDvj/AlkQMu6ABqGC9fq3rd8oadjO3WEQ8tx4fnU9c15aa2z3Tt6oHP+XkkHo3M3PoSNj17l8dI1VhZ9GBzmIyh6gSvDQYQtLMtSFIsbFrWhe7ncpPbton7sDOHnUwHCXEfoSXcZF0U/nRkoXBmerotXXrbCcoEfII+Tl+zrXt1/9jpp+us4lv+8nV7xG+o3Xw2/XueO/MP48Vev4PhuHyh7gJZW3ahaWn7vIRYwLhcp3L91YpCS6jEWK7ndFy5f4/0I43CXy+j3Wfk/ZYmMbEAh5hDznqL5Vk+vcxOvc0BHjGsd1zleo7AFeXPySW1hUuviV1hp3MksXGhc/Wn+Pe24WGn+FV5xbvBw0LoqnDum3DWmg1diG5OfmLO/ZOa8X4X1OyCPkOX2dU+lIQrJiV1prVLxmLKSan+o6l3z9/npEZPCgyF+Piryv2ZnK5Gc6cjOvsVDZA4J58SsInftirzUueHQhtG+4yxhqf+qQXhdEP59t6Nkt0vOctd+z4PtTt/SCkGd5wVwrMnd1cBtFqHQej+sc1zlmpxL2AO0XFlz01HLqoHEndKBN/cfq52Ytb663vg3pU09Szea7mJCn83Uu6eK1XOfyHfz69umzs4UtnYQ9IG+8brpSWnvur4W0I3ZbcqvnQKvaZx+mlYt88lH/bXP5063WtkgXhEQadvC+JYgQ8uxc51RqukIlx/3rXN9+9Ru8BDzwcWYPyMfFr2eP+4v8gpDIrMXGomPWlexT91JBkbFFsrzpXOhvUbPaNzIg0r3VXxfB0YT1s7DM1/PvYrR7KyHPT9e5bKaV877nOjdV8jsgoIGPsAfofPErLDcC3qwrqd6pKllZnXutcZZMtYvhQKuxcPXL+b3xw4bNCkV4n/ot5OXrfDQhz5vr3Ixac9+dbN3kOheUax1hD3DRcJdx99iti18oYmxJmHUlZ4x0Mm22SNVdxsVwoMV6A5F86t461nY8iGGPyh4hj5CnVshL3sic3WQEuKEj5gIEn2V1rnMqhr7jvzg3QzFY7xPO7AF2uXkgnYDnz/dP91bOujgeXJ8WOfmCtd9z2QNUxgl5hDyvQ17yOpequcpAi7FQz+bT/8bnQbl1kmKhryAksmhLoI66UNkDVA15BDx/mzbbGOI9dMQIfV4fcB86aiyWwyv0fl7tPI8EPUIeIW/qde74pvyHPLPXuZF+c/8tqHedq7rL2DqpwnVOxPiuOLreaE5G2APgeshLbl0JryDgBUXpQuOiM9BiXAy9bGXds0f/mwtWF6csEAl5hDz1r3Nmwl4Rn2WucyYNdxsVx7nXEvYASP6HoSe7aJY3UWEIMhXOmowOGxfi6nv1Xahaft5ZIPJdTMiT0YTI23tETu7P388obxQpu9K4oWT5s22iwy43SNVX3mS8/m9t8v4IQ89zxmMJwPk9wh6Qycn9Im/vzk/IK60d277CmIRgG+4ytpWoMKB28JAxO8nOgsxrdpqzsEAk5AU55IkYlbx83cwMRUTCy3O/zpm5kcPNUj0UFBk3FE8dNLYKe3nde2tTILZzEvaAVE4dFPnLVuvzurJhmyYmM9t4wE1/2Wo0SdDtJsSwjbDHApGQF9jvnlZjK5sO1zkzj5FOnHqZdaVxnYk+5N28xoBs5yTsAePlq/NY2eKxKh5gJegVhNy/8zkyYCywdbsAJrqt/x4WiIS8IF7n8tEsI1/XOTM3cQrL2SGjo4Iiowt0z27vxhEFYDsnYQ8QyU8b/IKQceGjiodUjm/K3gQhFDG2u4wm3N/m2bffOF+h03vX6pm9ghALREJesK5zTnfYdOM692Ei+7/DTRu9zb3WCFtebevs3uqP0UOEPSANp88rOHVGAcEOemWLRS5ZN/YeWrTFCHxuta4eHTbutlbdpc/zavW5YYFIyAvS89uzx7n/ZmG5yEWr3bnOmTmLS6Ml/c26UmT6bOMcndsjGoaO6ntWnbAHZOD0ubzyRjpqIvuiy0xgq1gmErll4q8VFInUPmgMDXdrQO1Amz7v6aEj9oIACHlc58wrW2zczHTzeR01UdnjuusPoXnGdc7NG5tJup5VJ+wBKTi5laUgZFz4dNvuBnWDXtWdxvsp5futaKzS5lbg69kjctlCPT7XdhYW8Ea+Oh0T8gzDXcbWNKeuc14eSTBzFpfrr38kb2y63bhF17PqhD1g0mLbqa0sheVGyJvdxFZNmFt4ZTtzVxAyLnBmAkjVXcZi1o0unkNHjaqZ6otnO2MXprNAdF2+OkAS8sauc07Ny0tu1Ux388nNP1O2MErY81/gu+xBkeM/d+/GpoixRgyv8N26jrCHYHBqK4sqFz/4K+glG7FYWbAk34NuBD4dqnt2tvxQ2SPk+e057n4692qpate5bDdyOHvrX27vZBkd9mV1j7AHf3Nqy2ZprUjFckYnwOLiy8RohcmNWKxwK/ANHTVCq8rhyGplj/N6hDy/cGrLpqrXuWzhlc8ygc9JPqzuEfbgX0502WRBgXwGvVSNWFQNfH371O3MOZqw/jkPRXiPEvL8cZ3L9WiCys+pmcZLVOiDEfgS3e40bfFhdY+wB/8Z7sq9dW95o/FB5xwA7Ojemv3MTKZGLHYC34cJkb88k8fFe5sRTFW822nnvB6fbUKezoaOGLtWcnme/dJBmm2cweBml06fVfcIe/APJxqwlNaKRG7mTiHsyzZDz0ojFivCK4wbHfnc6nLqoJrnVe2MXWCBSMjT9TqXawMWnW5mmvlsc+MmGJJdOl+5Nf+D10eH1b3eEfYQWLne5WRBAScWYdlaRdtpxGJF1V0iHw6LDB7KU9g7pObFz87YBT7rhDzd5NpozI87VjivF8zA9/o9+f9ZPXsIe4AyC+zurZkrKSwo4Mb7MNv2klwasVhxybr8bXUZPGT8WVXb2pKw+GctLOc9S8jT6/vlrU32b+Lo/JxmazrD2dvgCc0zjkHk+5z6yIBxg8UHjfkIe9DXqYNGNc9OOZ8FBZwy3GVU9DItep1oxGJWQdFY4MvHVhcVt7ZYDbaXTYc3AAAgAElEQVRs4STk6SKX4fN+eE4/TPBZxlTlTcaOrnx36BxoJewBnsjlLmcoYpzJY0EBp4JetlDlZCMW0+/zecb7PB93PlXbyjlsozlLUYT3LiGP65wW37HdhD2kFrkl/x06Vd3NQtiDrw0dMaooVu9yMgwdji9+W4wtxOnei/lqxGJWeZMRzJw+v6faxe89zusR8nzG7q4Vv13nRhMmgi1hL7CSu1jyfX6vv8VogEbYA1z40rfTgawgJBJe7qt5KVAk6GWqmuW7EYtZl6zLT+eyRJc6i/Rhxi4Q8nx0nbNTzfPrzcxsI1U4r4fQPJG514j0PJe/n3FyP2EPyDu7nTbnXuOrOSlQRLYZem41YjGjoCg/2zmHjqizWM/WwGHKcxIi7GV7bbu3Or81ipDn/HUueTPTr9e5rOf1CHsQ42b+qUP52845MmDcVNS4ikzYg94L61QYiI58yTZDz81GLKY/D01GVfx9Bys0VgNWPlkdu8AZn/Rho2eP868tIS8zu7tWyhYbN3L8fJ3LVrVnCyeSIjeLvHl//v77fz1C2APy8iX/1iZrd2pYVCCfC7JsM/S8aMRi1iXrnL0QJrrUeV2sVvyZy0XIU+m5t1rNC1KTMTpxwvT3zULjRn++unMOtGq9lZOwB/Wc3G9U9MwqCBkXP5qvIF+BItPcOq8bsZi9EJbWOregHx02KmpeVxUSnNcj5GmqZ4/xF9e59LLd7OU9hvGS2znzMXJouFuNax5hD9ob6TfuclpZfFQsE7noWs7lIU+LjSwz9FRpxGJG+RJnF/ZDR7xfeNoJe0GvBuQr5DHWxvx1LvqQtV0rQT1/nmmLNs1ZMNm02cYZ1nw1azl1UNvqHmEParDaarq01lhYsGcf+Qx6mWboqdSIxVTYa8o8KsJO0CpXeDGYdpEY0O+MfIU8xtqYZ3VAehDO5WX8fA9kXtgDk4VXiPTtz091b+goYQ+wxerh9MJy4+I360qeO+RPthl6KjZiMRX4loicfMGhMNytQCC3+BiCWA0g5KlxnbMyUqGw3LiRFOQqabYbOXTiRCr56kCd/C7VFGEPHi7ULDZhYZQC3Ap6mS4UKjdiyWZ2k3Nh78OE938eqwEmSAtEQp46r0P0IfOVhrnXMBfWTNhjuzDSKW8yqntO35AcHVZr7BBhD8qzsp2ltFakah3bNpB/mUZ96NCIJZvQPGOx7sQYBq8re2zhJOTp/H3CdS63zzedOJHJ3NUixx7Oz/crYQ/Iwsp2loKQ8YHVuN0tNJJphp5OjViymVGbv/bUqoc9Py8QCXnqsLJrhW7S1j/fheXs8EFms6507sbmhO/Zo1o+HYQ9uHsBzNTZcDzdml9A7xsQmWbo+e29WHalc2FvuMu7apmd8xN+DHuEPLVY2bXCdS69RHewPsdw3kWrnT+7p8qMWcIelL0AmpmdRwMWuB30Ms3Q07URSyZOfra8PLeXaTGY7rvFT4tqQp563yVmd63QgMXc85k27EV4fmDuWudkB2oRdWbMEvag3Bd2pqrJ5IU1M/PglmxbrXRuxJJN2WLznQFVDXtWt3FOn+2f9233VkKeasHbbBMWGo2Zk6mCwsglmFFQlJ+5eyrMmCXsQbsLIMN44cWCOd0MPT80YsmmtNaZsDfc5V0V3mqDmNJavV+zkX6jkpfuXCkhzxs9e4y/sglFjGoeQcWcTOsGtnHCrPAK58OenfPihD0E+gJIm2m47dRBoxlLqsWEnxqxZDLrSpG/PKPv47dzXk/XRTYhT93XJfqQuZsOXOesGc5Q1SsI0bEU5hUUiZQ3OtuUTMMmLYQ9OMvstk3ucsILmWboBalZwrTZ+elU5uZC2yrdqgGEPHVlumHEdS53mbaHU9WDVXOvdTbsUdlDoJndtsnZPHghU7XZj41YstF5BIOdi60u1QBCntrMzs6jmmdfpvN6um/HhvumzTZuvDg1G3ZEv5ukhD3kfyE9frFBBzJ4IdMMPT83YskkNE9ENA17VrfR6LBAJOSp//qY2bbJdS53mTpxUiWFHeVLnD264OXYIcIePPlSNrNtk2oevHp/pmuHHoRGLJnM0HgxanXWUShCyIN9Zrdtcp1zRqb1xHTO68EGp8+pe9mJmrAHd7+QTWzbLAiJVK1jbh68CXrpZugFpRFLxgA0z/h8OjmDyK3X1epjVvGcDyFPD2a2bVLNc/d7C7DK6a2ciS6tPu+EPdhjZkh6kBpeQC2ZZujxvpwYgnTrLGa1qpe80BPyYPWmQrqbReNRzXNeuu8kzushF05u5Rylsge/XwDTbYtLKggZc/NYdMCroJduhl4QG7FkUlqrX9izM3ZBhTuwhDx/fIeMv86xa8VdKm/Hhvqc3MqpWUdOwh6sXQCjD2XuRFRaa1wAmYMDL2Q6WxPURixZQ1AOA2e9+Jxbvch6vUAk5Okl03iWJHYH5E+mmzmMXUAups02PruZihWmv9f16shJ2IM5ZrZt0moaKi7Sgt6IJZNcF0+ehL0B9R8jIU9Pmbr2Jr9L5q4WCa/gudLx+woorXUm7GmGsIfMzGzb5HA6vJZu9AeNWDIrKNKvSYvVbadFEUIesl/nsnWVZteKS5/vDJW9gNyw6+yMSvxMQmKxmPTG+s7/ent7R9rf0xuLSTwel5rq6rT/TkNDnYiIzKkMS2VlpYiIVFdfKqUlJcF5f80I5jqVsIf0MjW5SGI7C7yW7m48702TYSiHJi1u3+AZ7lL3MY4mRN7eY27gNiFPHWbm57FrxT3pWtr77LzeUDwu0eifpf1wh/T2xiQW65PemPG/uWg/3GHrn1VXL5A5lWGpqamWmuoFUhmukJqaav+9v5zqQm2nURhhD8oZaDG2bab7QNCEBV7LVHWmEYt508r1eazv2TgUn++tX6MJkb79In37nK2QEvLcuXmQqRFLKGLcMGILuIuvSZrQ7XaF3mHth1+R9sMd0tkZlc7osZxDndOi0WMSjR6TltYDE369ob5OGhrqjP+tX+SP91jpwty3cmo2soiwh6kLl+6tmbcgcQGECu/TdG3RacRiMezZ3JZWEPJmcW71MearskvI01u2QelU87yRtrKn13pjKB6X1tYD8nJLm7Qf7pB4/IymIbVjQkWwob5OaqoXyMqrl+lb+QvguT3CHsaY2c5CxQReS7e9mEYsNi98NjtyetEswfJ5vTw8RkKe/jJ13ORmpsff793qfN9Y1Nsbk5a2A7K3eb9Eo8d8+fIkw9/2nbuksjIsS5c06hf8Anhu7yNnz549y7cLst7ldHGm0KuxQXmtb1C6BxPn//70u+/7+um/orJMZn6sMOu/N3N6oVxRWTb2nTX9wgl/H4igl2rblclGLL29MYke+7N0nrsQx4fi5/9/OpWVYZkzxzjMPqcyLPV1i87/vS+M9Iv86Tbrv69ssfGc57x4eGVCI4JMr8n/9p8+lFDh/zL13/3sFWH5f98tld4zs6SmeoFUL7g0t9eNkJf1tRM511wiRRVj/OeopnqB1NcvcqQxxFA8LocPv2LpM11Tmf560hkrVP55LykpNr24rqleICXjnmelG3KMJkTab0z9zz79b8q+Hi2tB2Rv874pWyCDpLIyLKtWrpCVK5bpcX1sX5P797jC70nCHqbq3pq5qUBprbGoy3Oji3/pOCEbXnzjfMiDNZGyIomUFcnMjxmB0Pj7Yrk8PNNUkFTe0BGj8jz5C9pEI5aXW9rkiSd/5djd1srKsNy45jq58Ybr/PHm+eP/Yf335LDNrfn5/Z5sb7L1uhHyJjjU3iE7du5y5LVbefVy+f73vm0rfBxq75DNT/4qY9MJZAmM5zo3Jrs0NtTXSWW4wrvF+tARkTfvn/rroYjIJx9V6vnr7Y1J874XZG/zPuXO33lt5dXLZeXVy2XxufeVkqIP5b6Vk7AHLZhpN+3CuYXT774vS7a8LK/2DfKa5MnMcxXAxqqPS+P8j+sXANNtu8qyrXgoHpdv3v3dvC0IKyvD8vOfPaJ/1zI7Ye+yByx3umx+fr/8cvNTni+OTL1uhLwJOjuj8vAjP3P8s1RdvUCeefpJS4Fvb/M++cH9D/DFnkcN9XVSWRmWxQ117u1mSPc979AuAqdC3hNP/kqan9/Pm8TEe+jGNddJ05Kr1HtwPbtFep7L7b9B2IPysnUhc3F23pItL0nbiX5eE5ddES6TxqrZsqr2IrlqvsKzo07uN6rPk2VpxDIUj8vaW27L+9mJkpJieeafn9Q78L253vp5uE89abq5y1A8Lj9Yv1GpbU5pXzdC3hTbd+6Sh3+Sv8rKyhXL5Mc/2kDQU1hJSbE0LWmUxQ11smTJVfnZCppuAa5As5yheFx27Nwt23c8q22zFa9UVobljtu/LiuvXq7Ogzp1UOTYw4Q9+Fi6xXOSi/PJHvtDp3xr3yu8Jh6bOf1CWVV7kXzzs9VqnQFMNUPPZCOWh37yU9mxc7crD7Ohvk6eefrJ4IS9gpBIww7TiyQ3QrfdRci/PrfTWLgS8lL69Y5n5SeP/CzvQeL//kP2IfS9vTH50uobWGwroGnJVbK0qdHZ4Hf85yIDbVN/3cYuAic98eSvCHkOXSdvv+1ramzvHO4Sef2ewIQ9unEGiZmxChevFQmvcO0hbXzxDV4XBZx+7wPZ1nFCtnWckEhZkWz4widk5WVzvdvqme69arIRS/IurFvaD3fIyy1tsrSpMRhvGJOd8VQOeiIisVif/Lf9/ybX/s10Ql4Ke5v35T3oiYjpRfT2nbtYcCuipfWAtLQeOF/x+8ZtX8t9q+fIQE7fN0471N4hP7h/I2fyHLxOtn+1Q1ZevdyZ90suAtZt96O8/QIiuW0zXdArLBf55E9dDXrbDp+Q0+99wGujmO7BhNz03B9l3kPNsvGlN9zvhJqcoTf5vVq22Kjomdg62NLS5snCWFultRYvlBFT/9oP1m9UvgX54f/4vUjPHueCXmG5scV40Ratg15nZ1S57ZKck1JPPH5Gmp/fL1/8u5Vy193fkUPtOZzpHOlP/XlyYZfRZA//5FG5+au3EfTy9Dn+0uob5Iknf+XtAyksJ+zBRwZa0g+gFhEpbxS5/FHX73TsPdrDa6Ow0+99IBtefEPmPdQsj/8h6s4PHelP/V6tWGapI+zLHoS91rZ/D86bw8Sd9l/veFaLVuS//7/ekrMf/Rghb5yheFzu+tZ3Xft54XCFqc80VT21tbQekJu/epvct36j9PbGbHz/D9j6rnH6Jsc/XHODbN+5ixc0zzcJntj8lNy3fqN3D2J6Dr0KTN7wJOzBHd1bje5Wqe5aF4SMxUnVXa7fOTv97vvS/CZhT5fQd/e+DvnUY7+TV2N57Jg63CXy+renBr2qOzN23Ex3IfFCZ2c0GG+KLOdnhuJx2ez1XVsr75ezOdzh9VHIS3rC5Y6pZrY/e1Gthz3Jyo2lwDSSpklbkXuL6u07d8nar97m24Hoqr5Xfr3jWW9+eC6B7YIirZ5nwp5fjSaMpgvp5ueFIsaWOI8WJ3Tf1M+rfYPyqcd/JxtfysM5y6EjU7vDFoSMrcUaLaCHglB5KCzPupX24Yd/qlUVpnfQxtnUgpBxxtlHIU/EaILi5nlXETE197C9g0ZeOonHz8jDP3lU1t5ym7kqX7qw59KOo/vWb5SHf/Io1WMPtLd7NCtz2uzAPMeEPT8a7hJ55db03fXKG011M8xr2Dv+Dq+Tpja8+IYs2fKSc2f5BlqMQbrjg15yiK5mh6gDMeB5Rm3WsNC87wW9FqbvWmhKXRAyWsEv2uLqGWe3PLH5KVd/npkZbr29Mc5O6bqQP9whX1p9Q/ZdD4mu1L+e522cQ/G4/MM1N3Ae1OMbA57I5b01Ta/zfoQ9vzm532gnq9i2zcnyuh0Q+Q/rJ/plyZaXc38dT+6fOkTXQiMWeCDLFk63w4Jrxoe8udd6/h2aD52dUdeD+jdu/7qpwAC9F/NfWr0mcxOr0UTqz1werwOqdwsOiqamq/R70JqtTxi94BfZxiqEIsbsPEUqJQe62Mapu1f7BmXJlpek9dbP25vNl2qGXsUyy+fzoE7YG4rHtavqiYi0dPx/snh5hpAXXm5U8XwY8MbbvsPdphT1dYtMzdzybJsXHJXs7rpqZYqKeKJ76q/lsapH0FPH0iWNPAl5RmXPD5IdDNMFvYplSm2JYwunf5x+7wNZsuUlaxW+0UTqoGejEUs6DR4NbfV9g5ZQJOMdTbfDQl4FoJI3nhfbb81U9UREOo/9mS9bHwW+lBW+VJU9qyNhCHraMbONO2+y7FLJfC3U64gJlT3dnTpoLJzTbttcJzLrSqUe8qt9bOH0W+Bb+9wfpfXWpdmHsCdn6I3vuFkQ8vwMqVN8f7g/w+LLGGTvg7AXoEreeF6c1Vts8qYMi3L/Bb6SkpKJXVhTndnLw1Y5gp5aVq1crucDpxsnXNOzR+TYw6mDXrLBhWJBT4Tzen70at+grP3NHzP/S6lm6GnaiCWwMtwJ3b5jl95hN2CVvPFUruodYgunTwPfxok7IVKtY/KwjfMH6zcS9BRRXFwkTeMDv06K9FqzEPZ0NJoQiT5khL1Ukts2FT1A+lrsNK+hD+092iMbXkwzliHVDD0asegXhtLcPNK9qtfc1hXIkJfkdlUvHK4wXdXrjEb57PlQPH5G7rv/ARmKx43RO6k4fBPwl5ufkpbWAzz5ili6pFFKS0o0vR5S2UM+DXcZ1ZHBQ6kXYwu+r3SDi9Pvvs82Th/b+NIbUyu3qWboVSwTqb43b1+YcyrD3ixgzmha2Uo3pmW8WYvT/iPdq3rx+JlAhjwRb6p6d5is6onQnMXPotFj6W80OHxeb2/zPtn85K940hVy45rrvH8Qdt5nuQxjJ+whq1MHp26DG//mU3Tb5nhs4fS/tc+N286Zaoaeg41Y0qms9ObAt6+3B5Wl/27xxVm9gPKiqpeyG2O6zxTNWXxtx87d0vv//I+8Lqg7O6Py8COP8mQrpHrBpVJTU63ng9dwNxINWnTRsyfztk1N2tW3nWDkgt+92jcoj/2hU+6ujk2coeejRiyBk2EL597mff5vTONTQ/G4tLS5u63NSlVvKB5nmHoAPLbtgDzylYKJv+jQmaiheFzu+tZ3tf+OKi4ukprq9OGoMxqVM2cS2vx5lKjq2VUU0e4hE/ZUN5oQeWtT+m2bCnbbzBgEqOwFwjN/+KN8s/Al+UjyF0IRY9sm5/PUlKoT3ngZtnA+4ZOtUUPxuL7nR2xye/ut1apeZyeNNILgd/8zJt+/rkH+U+HJsV906FrxxOantLlhUF+3SGpqFkhlZVhqqqultKTYVvWrtzcmvbE+icfj0hk9JrHemHRGjylVJW9qatT3DavhDWvCnsqGu4ygl27bpoaL59cUOK83Y/qFcnrjPyoXgk+/+76IiHQPJs79dUa6TyW0HED/+mChHHi3QRqnHTAasVyyLrBnorSQqhPeeGXpq3p+qbx0dh4z3TTEL+HW7e23Vqp6IiLth9U4r/f4zx6ZOCZAgdcuGYSTC/r4uV/rjcWkr++kdu/Hh3f1Tqzu5TID7fxnOio7du5W9s9cveBSWblyudRUVzv63TNnTuX52XWT37eH2juk/XCHtLS0eRb+Vq5YpveNtels44RTMs3P02jb5njJEOO1K8Jlyj03V1SWZX3u2o6/I20n3pG24/3yl9Pqb9f45uFKee0fvHmverlo7+yM6nUWIV0nvKQMWzifoOGBtlSv6omo05ylpnqBUq9daUnJhO+4yQv6oXhc2ts7pDN6zNNFvRW/+58x+T9v/LSUfbTXsfN6993/gHJ/znC4Qm5cc50sXdLoyTDxxQ11srihTu64/evS2xuT9sMdsrd5vxzueMW9sGfxe0A5VPbgiHTn8zTctjmeKls4G6s+rt1zFykrkpvq58tN9fPPP5eP/aFT9h7tkb++94GSj/n1/g9kb+KLsipgH98h3c6GfJjlxkGaLZx+qupJ4N6j7lf17JzRiR7zfhtnOFzhyaI81zC4tKlRljY1nl/Uv9zaJtt37FK66vev//GBfO1vxJEzUb/c/JRSDbPq6xYZIW9SMPdSsgK4auUK6eyMyvYdu+Tl1ra8nv2zMnZFievflA9XreiIbpwqyTQ/T5Num1qEvfn6nxu7orJMtl3zGem+d6X88POfkBnTL1TycW47fILPteqGs5zXm3ttyl+mqqcvt6t6xcVFlqt6vb0xJZpqqFbVs7uo//Ka6+XF3++Tx3/2iFQvuFTJx/n4jg45+9GP5Vw56e2NKdMhOByukK3//KRs27pFqaA35X1eUy0//tEG+e1zz8rKFcvy9nOUa8yS6phUJhqOXSDsqbbgSjc/r7zRF8On246/o0xQ8ouZHyuUDV/4hHTfu1JWXjZXucfX/GYPn23VJTJc7EprU37v+LGqF4vFAvOSNz+/39Wfd+Oa6y2f0VHlvJ627eHTWNrUKL/9zbPyowful+Ji9c5Rv52ozLkT5xObn1LiRsHtt31NXvz9Pq3OAs+ZUyk//tEG+e//rVnq6xY5/t9fpfsWziI9u4kT9lSQbn5eQciYSVZ1ly+aW6jQaOTimUUy82OFvnsLzfxYoez9yufkmX/8tHKPbe9RbwJfOFzhyc+Nx+N6vXlGMnwuy5ekCQsv+O4z1BuQLaluB/Xi4iJbd/M7FdmC11Dvz6Y9q1aukG1Pb1GuyvffD8dzas7S2xuT5n3efj8VFxfJ1n9+0nJDItVC37atW+R73/2WYzcFtG/MIuJI4yDCXhD17BE59vDURiyhiFHNK2/yxR9TnfN6/m79f1P9fPnTN/9WqW2dXlV053g0WL1Tp8Hqo4n021gKQim/f5Ld3KAnt7ff2qnqiagzdsHPHVpraqrlma1qBb6t//an3N7fm5/y9PFXL7hU/odm1bxMvrzmetn29BZHbp42NTXq/WQUhLTdYUfY83KRle58XnLbpo+GT6sS9vy0hTPTn/GxFepcaA6c6Ofzrqq/ZujEGV6e8pc3c1ZPW7pU9UTE1e6AmRbufldaUqJU4IsP/y/p7Iza+r1eV/WqF1wqz2zd4rt5nTU11fLb3zyb03skHK5Q+syiuQ/LQm0fOmHPCyP9qc/n+WzbppJhL1wWiLfYTfXz5Yef/4Qar33fIJ95VWUau0BVz3f0qepFlXi+/NCcxWzg+/GDP1Tm8Ryy+R3jZVXPr0Fv8k0Bu+f4lDyrl23s0JQnoVbb14+w58Wb6/VvT906VVjuq22bk6lS3dFx7IJdG77wCbl4pho3DVRpzoNJ0m3hLFuccruKW1U9L85bqhIw8sWLpjqrrl7u6mLfaQ0+3sI5JdjWVMvtt31Nicdi533qZVWvuLjI10FvfODbZjPw2f0uUMoMKnsw4+R+kTfvn3o+r2yxyOWP+mrb5mQqVHeumjc7cG+5DV9Qo7p32oNZgF4t1LQKDUNH06StqRdmN6t6XjQ2iOs2H9Eit6t6K1cssz2fLqrIeb2gVPaSblxznRIdOu2c1/Syqvfzx37q+6A34c/7+D9Z2tK5pPFzas6qTHSZ/3cLQlqv0Ql7bjm+SaR769Rfv3itSPW9vtu2OR4jF7xzU/18Jap7qmzjJTSMD3pptrCU1qY8m9DcvM+Vh5WcyaZiW3hdHWrvcL2q940cAnvnsT+rEfZ8NnYhm9KSErlxzfWeP47oMethr6XtgCePdc0N1/q6iU+694mVc57KntUbtTBQXePzeoQ9t95Mr39bZKB14q8Xlot88qci4RW+fwpUObMVxLAnIrKq1vv5e6fffZ/vAtWcOpj61+eunvJLbm6RSi42a6qreY0cslmjqt5QPC5RBTra5mPGmBbXCwW221m9Yba3eZ8nN9nC4YqcbmroHvh+/OAPs96US968U9KHFsLerMWEPaQx3CXyyq1Tz8WU1vp+2+Z4bcc5r+elm+rnex/4YzRpUc7kBlHJ76YUdzDd2iKVS/dGpOZFU52cqnqKbOFsCFi1JmnOnErPZpTa5dXczztu/3qgtm9OVlNTLT9/7KcZ/x0VKsXp1+jdFsLelYQ9pDDQYnTcnHw+b+41Ipc96Ottm5O9pkBlb8b0CyVSFsxtYUGtaM6pDHvyc+NnNNjGOdwlMjIw9ddTDFF3u6rn1eJJhVb/+aBTVU9ElOn2GrTzeuOpsO3uULu590Fvb8yT90w4XKFuxcpFixvq5EcP3J/hO90HN+9CEe3X7BeQyvKgZ8/U+XkFIeNsnub7fq06/e770j2Y8PxxBGXkQjqXh2fKa32nA/VnrvRoqHpUh6Hq/S1Tf62wPGU3YKp6+tKtqifC2AU1vjvD2jzWvc/v9+TnEvSmPhc/uP+BCb9++21fU7vyma5B2WSab+Ek7DltNCHy1qap26NCEWOsQkHwKkuqbN8L6hbO82G3sixwYQ8ZpNrCeZH3Z/WCvCUqH9yu6jnRdS+qQHOWcLhCze6BrgVdfc7LtrR605jFF6MEHA58DfV1sn3nLunsPCZNTVfJl1Xewjli4XiR5ls4CXtOv3GiD03dA1yxTCRyS2CfljZV5uvNnx3ot2ekrJjPKAyptnB6XNVLtXhqaKjz7dZKN3R2Rl2v6uV6Pqe3N+Z619DUYWcBbyAN9PbGPNlJUb3g0kDfDEhnzpxKufd79+jxYM2OXSgs90V/DcKeU4unyefzCkIikZt9OyTddNhj7AKglr4UIxRSVPWG4nHX2pnnes7LKUPxuG+qi9t37HL159XXLcq5BX2nIluggzZyYcqiXZNtnF6d72xqauQ64od1uxk+2MIpQoOW3A20iLx+z8Sgl9y2GfCgJ6JGc5aLZxbJzI8V8l4NGC9nHyk7WH00IXJq0hbO0tqU31Xbd+xyrZ25Ku3LVekEmSs3t986+RqqEvYa6oPZifN82FPgxktNTfbq6sstbbw/YE+i29y/N9sf63gqe7no3ipyctLh4PJGY9tmAQOBuwcTcvq9Dzx/HI1Vs3mvwlVDqg5WP3UwRSbEzwAAACAASURBVIfg1FW9HTvdqQypUtXzEze334o4U9UTEWlvV6MT5+IGFvNeM1Nh92qb9xyNGtggDTOVPZ9s4STs2ZWuEcvFawMxJN0sVZqzsIWT1wDn9E26OZVmrl4Qq3p+oWtVT0Qkesz7yl71gkt5D/XGlH+MnZ1RTwapiwg3p/ywhk81emgyn2zhJOzZkaoRS0HI2LYZkCHpZilzXi9M0PAa22gVMHRkagOpqnVT/zUXq3qZujfSJMMeXat6Xi7eed9NCnsKNMnJ5mWPunDCB8w2Z/FR8YYze1YMd4m8/u2JC6bSWpFFWwh6KTB2geDttXC4wpOfG4speGd8YNJsvfJGkWlTtzi7WdXL1L2xxINGKZ3RqNbvdy+qek7NRlTmvB5bOLUQ86j6WFJCZ2vtDR3J/u+EIimvj7qismdlodS9deJ5l4CPVcjmQJf3Yxeumsd5PRVEyrw5wzqnslL6+k66v+hW7c74SL/IQNvY3xeE0n53Nbs0pNipipCT4qqetTRp+053O3CGwxWytKnRV2GPyp73Nz3q6xYp+x2r+3cExNyMvbC/5igS9szo2WP8NX6hVLXOF4MW84XzemrxuiuqV2EP50wetxBenrKJ1N7mfa7NOeOsnrOG4nHXgnrSHQ6+hu2H1ZipGPSxCyoEGjMNUJjBCftflkcz//OCkO/W92zjzOb4polBLzlWgaCXUdsJ5uupxOuuqLwOHhpNiAy0jv19YbnI3GtT/qtPPPkrVx6SilU93bm5/VbEqOqtWuncmZaoApU9MxWlIPB6dExllgYoXjeQUXa0DrIb7srenGXWYt911CfsZVogvf7tiYukssU0YjGJ83oKBW8FzuvRoMVDffsmbj+/ZF3Kf021qp6ZOVswuNlUJ8nJqt4hRUYucF7P4HVlL9tWWq+3ydMcRmN/NXFez4czsgl76ZL/0fUTG7FcvFak+l7m55n0Wuy0549hxvQL2T4oxrxDL3l5btKrxZsq88JkNDFx3ELZ4pSjFkTcq+qFwxWmqnqlHjRoUeZ1s0j3qp4qjXE4r2fweotktm2c7Ye9/Zy2EPb0lW0LZ2F52mskYc/PQa8gJHLZA8zPs+jVPu8re4xcUCPsRWYRuD0zvqpXEFKiqncHZ/WcXbtoXtUTEYl20pxFFSpsUVT93GQ0ekyZajQsmjwfe7KLVvvyj03YG2+gReT1e8YWR6GIyCcf9WXKzydV2vyzhVON1yNSRqtqT0yu6s1dnXZnwvadu115SE5XhGAEdTeresXFRY6/hu0KNNsIhysYli3eb5H0alyOVZtd2gkBB2UbueDDxiyEvcl69ogc/8XY35c3GkFvGq37LYeLE/1KPI7G+bx2It534uR18Mjbu8duXJXWpt2dcKi9w7XmGFT1nLfDpaCelGk2oq31VzzuWlU5E6p654K3x1skF9fXafM8/XrHs7xhdHLqYOZ/Xr7Et0e1CHsiUztuVt0pUnUXz4tNjF1Q67XwuhOnlxVWMy288yHW5/HidaRf5OS44dqRm9P+q5tdPKtntSLkdnfE+Bm9Zmi5uf1WxKjqOTVEPalTlS2cjFxQ4vUwc85alW6YP3nkZ3Tm1Em283o+Pq4V7LA3mhB5c/1Yx82CkMgnf+rLTjxuek2B83oXzyyiA6QCwdvrofaVld5sy/K8UtG9dez/VyxL20H4UHuHa3fydajqRRUZ7G3WEy5vJbtxzfWON87xupJ0PmTU04lTxPvmLGZeB5UGm6/96m0EPl3W++ObLk5W3ujrnXwfDfQLf3T9WNIPRUQWbWGsQq5rzMGE5w1BREQaq9g6KOL9vEPOTXpg6MjYIfRQRCRyS9p/1a2qXnFxkTQ1NfLaOMgPVT0Rdao0zH30fgSG2XOTXu3YSBc8CXwayLqF099FnmCGveEukVduHUv5yfN5jFXIGVs41XLA4/OTnNfzwPgt6Wm6byYXdm5VVfJREQo6P1T1RLyvJImIVC+4lDeU6HNer1KxRjrx+Bn50uo1rn8mYSXsZejCWVrr+0aMwQt7Q0eMil6ycQHn8/wZ9hi7IK/GBj2tss6YfiGVPbcNtIztVph7TcadCs3N+1x5SLlUhEpK6OSail+qer29MSW25DFM3eD1/DjdX4cnNj8la2+hyqeckf7MIxfmrvb9UxCssDfQIvLm/UbQ43xeXjB2QaEF4dEeb1+D+d6/Bl5uzXJ9S9RoYuysXigiMvfajIvs5n0vuPKwcqkIedE0o7c3pvxne7vLHThXrVyRl6peZ5T5eqro7Y15fmbVD+cm2w93yJdWr5H71m/U4rskEDJt4fTpEPXghr2T+8dGK3A+L29UaM7idVMQVTR7HPZuqp/Pi+Cm5KiFDMPTk57Y/JQrDylfFaG8LnoVGAOQ7SaC24vyG2/Iz2uoSnMWwp7Iy61tnv78JY2fMz3nUIdQ2Pz8fvni362Uu+7+jucV08BLNmFM5aLVgXgKLgjEn/L4prEXu7yRbZt5okKbfxHO64kYjXJe9TB4z5h+oayqncuHwi1DR8ZGLcxdnfFGlptVvaVLGjmr5zC3hzmvXLEsb8PGVRi7UFxcxNgFEWl+/gVPf/7SpkbT/26pRtu7W1oPSEvrASkpKZamJY2ytKlRmpZcxReZW0b603fhLCwPzO4+/4e98UGv6k62beY57KmAsCey7fAJT38+Qc/tdH9u+2aG4elJblX1RES+wRB1R7nZVMeN11CF5iw11QQ9r7dwWu3Wq2M4j8fPSPPz+6X5+f0iYlQnm5qukprqammoXyTIk0xbOANS1fN32EuOVhjuNrY1Vd8biH25hD3O64mI/EuHt2Hvpjp1tnCGwxXS13fS9Z8bi8VExIXtRn37xr7nqtZlXdS5VdVzoiLUUF8nm4UOd0n+quqp0cSC5iwie88FEK/Y2QFQX7dIiZsFdrUfnnjjpqG+Thoa6qSmeoHU1y9iR4RTTqZ5bweoquffsDc+6IUiRtCbxjmuIIS9GdMvlEhZsEdo7D3a42kXzotnFikVuOdUVnoS9lw5+zXSPzZqoWpd1u85Nxd1ulb1OqNRJWeu+a2qR3MWdTR7HPaamhqtv241C7QOe9nCX2VlWBrq66SmZgHVP7uGu0RGBlL/swBV9fwZ9kb6RaIPGUGvbLHRqID5ea440NXv+WNQoQOk1x7/Q6enP58tnC46vsloylKxTGTWlRn/1aF4XHbs3OXKw8pnRSjfVBgFkIqfqnoiIu3tajRnCXplz+0xHpOFwxWWzuudf93q62SHy11p3RSL9Z3b9jnxz1xTvUAaGuqo/pnR35L610ORwB3p8lfYG+4am6FXsUwkcgtvdpeoMnIh6Of12o6/I20eD1K/+29q+EC4ITlTLxQx9V23fccu14IMZ/Wc1dsbc72ql+8uqp3H/uz58xoOVwR+wez1IPBVK1fY+n1LmxqluLhIzpxJBOa1Slb/tp+7aVddvUAWn9v+SdOXSUYT6btwRm4O3NPhn7CXDHoiNGLxwKt9ipzXmx/s7bobX3rD05//lbp5gd9G69qFrHvr2HnkLNys6tXXLXKsIjSnMsxrLe421Um+hvlughFVYBtn0Ldwel3Vy3U0y9Ilja6dQVZRNHpMotFj58Nf05KrZGlToyxZchVVv1MHjcLPZKW1gezf4Y85e+ODXu2DBD0vwh6dOD2nQlVvwxc+qdzz4tU2rbxuU3vr3PZNE+f0RPSt6nmxFTQejyv1/nWzqU4+XsNUDrGFU42bCB5X9W5cc31OoaSpqZHF1zgtrQfkvvUb5X//bJPcdfd3pPn5/TKk2PeZa5Jn2ScLYFVPxA+VvYEW4w73tNlG0ON8nicOnPD+vN7l4Zky82OFgX0N1v7mj57+fKp6Ljl1UGTwkKlzekluVvUWa76AVmH224QFuQdVvXy/huoMUw/u2IVfbn5K66qeiLGV06tuyzoEv/Hz/b5x29e0PUdt2dCR1I1ZyhszzqD1M70rewMtIsd/YZRkCXqeOf3u+552f0wKclVvw4tveP4aqFjV853RhNGUpbTW9Jnkvc37OKunKT9W9YxArcbYhcUBrex1dkZduwGUTq5VvSS7Z/6CIjnf74t/t1LW3nKbMlX1vOpL0V22ICQy99rAvg/0DXvJoFexzDizQtDzDFs4vdV2/B3O6gVF9CHju87EOb0kt7Zq+aGqpxo/VvVERKIKNGepXnBpYN9X993/gKddZ52o6o2Fxuv4ojCp/XCH3PzV2/wd+kb6jZ0vk4WXB3oEm55hLxn0qu6k46YKYUOBLZwiwRy78GpsUP7+1//u6WOYMf1Cpat6XjX5iPU5vEWqb59IokukxvzNLTcbMKxauTxvASSI/FrVG4rHPd0+mBTU83r3rd/oeXMcp6p6IiKlJSVy+21fYyFmI/Tddfd3pLc35q8/XN++qb9WWC4SDnYFWL+wlzyjd9kDNGJRKHCoIGiVvdPvvi9rn/ujnH7vA08fx92frVG6qldZ6c05BUcXtMNdxoHzyM2Wzhy4VdULhyt8s53K8ZBu016XB11XL7jUlaqeKvP1gtiJ8771Gz0foF694FK5w+GbCjeuuU6Ki9lZYlVL6wH50uobPG/U45h04xYiNwd+959eYS8Z9GofDGTrVFUdOOH9jL2r5gWrPH/63fdlyZaXPR95cXl4pmz4wif4EOTbW5uMbSgWbnC5WdW7w0dn9VSoOrk5KmP8gtkNnVE1GuAELew9/JNHPQ96IiLf/949jv83S0tKOC9sUzx+Rp7Y/JT8wzU36F/lSzVuobTWdCMzwp4qQa9vv8iiLYHtpqOi7sGE55UlkWBV9V6NDSoR9EREtl3zGT4Eef+QPW2cNbB4uHz7zt2uPDw/VfVU4eaoDLdfQxUqe8XFRXmfI6iS+9ZvPD+LzUtrbrg2b9XjL6+5PtDnMHMVjR6TL62+QV5uadP3D5Fq3ELVOl5cbcJeMujRcVPJ4KGCxqpgnNdrO/6OLNnykhJB75v/uTrQHVBdMXREZOioyCXWLliH2jtcO5eT76pe0Aare1HVc7MyGz2mwjD16sC8l9becpsSFb1wuCLv1bcfP/hDrhk5iMfPyDe/9V15+CeP6vfgB1qmjluYe02gm7LoFfYGWowFzycfJegR9tIKQujY+NIbsuSpl5WopF48s0ib7ZtedojMqePZaMLYtm6j2/BmH53VqwzKbKhz/FzV6+2NedoFMikIzVkOtXfIF//2amVmGt77vXsca8qSNsTXVMv3vvstFma5fgft3CX3rd+o14OeXNWjKYtGYS8Z9Kru4pVSVNtx78/rzZh+oa/b/rcdf0c+9djvZMOLbyjzmPZ+5XOBHmDviu6njYqexTuTh9o7XFvg+XX7pldz4Pxe1VNnmLp/z+sNxeNy3/qNcvNXb1MiWIuIrFyxTJY2Nbrys7685npZuWIZ148cNT+/X+66+zsyFI+r/2BTVfUuWUeBSIuwN9xlzMsg6CntQJf3Yxf8OnKhezAha5/7oyx5So3zeUnP/OOn2b6Zb337RMqutHU+2a2qnpOzstRbMHuzSG5pafNtVU9EneYsfqzsDcXj8sSTv5Iv/u3VSmzbTKpecKn8+EcbXP2Z3//+PZzfc+L7qPWArL3lNvUD3+SqXtlimjhOcoGyQe+9/kBPu9cBWzjzo+34O/IvHV2yreOEco/tK3Xz5Kb6+bz58/39d0GRrQ5inZ1R16onTs7KgsHtFuhuh/XOTu/DXjhc4av3bXIe4/YdzypTyRv/XD+zdYvrP7e0pESe2bpF/st/XSFnziT4YslBNHpMHv7Jo+qeh5xc1SsIWT7jTtjzwki/EfRolUrYM6lxvv4HcLsHE9J8tEce+0OndA+qeXG6at5sbbtvhsMV0td30vWfG4vFRMRCFWE0YQxOtzlDdPsOd7YAulnVa6ivk83ikzlQGbg5KiP5Grq9DfdwxyueP89+2MI5FI9La+sBebmlTVpaDyj5GIuLi2TTY//kWbAuLSmRbU9vkZtuuZXAl6NkpVjJwDe5qjd3Nds3lQ97ownjL4KeFtoUmK8nomdlr3swIa/FBqXtxDuy92iPsgEv6fLwTNn7lc9p+16dU1npSdjrtbp4zyHoJe/wu4GqnvPcr+q5+xoeUmSYuq5bONsPvyLthzuk3cUzubn48YMbPB9vUVNTTeBzMPBVV18qX15zvToPanJVr7SWpixahD0RZuhp5LXYaSVCiMqNQl6NDcpf3/tAXo0Nyun33pe24+9I92BC+XA33ozpF8q2az5DQ5Z8G+nP6ZzBE5ufcjEoXOfrl6L9cIerXVy9qOq5voUzGlXitVV57EJvb0xifSclHo9LZ/SYdHZGpTfW59oYFad877vfcq0hC4HPPT955GeyuL5OjRmVo4mJVb2CEDP1tAl7lF61okLTkL8MJmTJlpeUel7aTvT75jWeMf1Cabv18zRkcUMO84DcrOqtXLGMqp7D/F7VExGJdqoRWDY/+SvXmhiZ+uzGYq4G/Xz70QP3K9elt6amWn773LNy193fkeixP/OFk4P77n9Annn6Se+vAX37Jlb1qtYxU0+bsAdtqDByQUTk9Hsf+CpcqeTy8Expu/XzVPR0CAsuVvW+4WKrfhH/D1UPQlVPRKRTkUW2DlsgCXp5+B6ZUynPbN0i9/1gg7S2/Tsvlk1KNGwZTYj0jes4W7aY419ZfJSnAHaoNAoABL1svDqn48a8tqF4XFra3GnSsHLFMpnj8pDzOT4fqt78/Auu/jwvqnpD8bh2WxHhn6CXVFpSIpse/6ncftvXeMFy+s7aLy+3tHn3ALqfFhkdNv4/3TcJe8iftuNU0wh6yMaNVujbd+xyreW621U97143d+ZKHfKg2YYnVb1Ogp5fFRcXyb/u2aF80Bvvjtu/Lv+6Z4eEwxW8gDY9/Mij3vzg4S6RgXFBs4rh6YQ95M1rVPZ8aeVlcwl6GhmKx2XHTnfGLXhR1fOKW+HE7bNjXp23ZOukP4XDFbLt6S1qNOywqKamWn77m2ep8tkUi/XJL108PnBe99ax/1/eyPZNwh7y5fS772vVTRLm/GzFItn7lc8R9DTiZlVv5UpaWjvJi6qeV5VZN7Yzw131dYvkt795Vsugl1RaUnK+yldft4gX1aIdO3fJkEu7IETEGLUwdNT4/4XlIpFbeBEIe8gXGqL4y8Uzi+RP3/xbufuzNb79M/q1yYdbVb36ukWujiKYrHrBpb577byo6nlVmaUDor/cftvXZNvWLb7pyltTUy3btm6Rx3/2CFs7LYjHz8j2He5cg6aMWqi5l+2bhD3k06sxtnD6xTf/c7W8evff+n60QmWlV4vc/G0H3Nu8LzBn9Up8NuohSFW93l5/jRYIsuoFl8q/7tkhd/j07O7SpkZ58ff75EcP3E/oM8m16t74UQtzr2EmN2EP+abK2AXYd/HMImn9+lJ57Oo6tm3mUT7DmFuz2byu6vktpIuIbN/xrKt/Hi+rep104fSF22/7mvbbNs1atXKFvPj7ffL4zx5he6eJa1xLvjtzjvSL9Dxn/P/SWpG51/LEW8ScPVhGcxZ9zZh+odz92Rq5+7PVhDyNuTmbLSgdON0K6b29MdfnfHn5GhL29FZft0h+/OAPA9OcabylTY2ytKlRentjsn3nLmlv72BLcgrbd+7ObzfW45uM/y0IiVTfyxNO2EO+dQ8m5PR7H/BEaOgrdfPksRVU8vzArape9YJLlajqlZQU++e1c7mDndddVNvb6cSpo3C4Qn784IbAVfVTmTOnUu793j0iYtysebm1TdrbOxjOfk40ekw6O6P5qfqeOjjWlKWac3qEPbiCLZx6hrwNX/ikRMqC+yXppwXLyy1trlX1vJjJlkpNTbUvFla9vTFp3ufuEHWvu6ge7niFL2HNQt4dt39dq7l5bge/L6+5Xr685noRGTt/297eEej3+sutB5wPe6OJsare3GtEShfyBiTswQ00Z9HDjOkXyqrauYEPeaos8J2srOzYudu1RR8LPme5XdXz+rwlIxf0UV+3SG5cc50sbWrkybBgcUOd8Rm7XaaEv85oVM6cCcaYqpbWA8437nl7t8josEjZYs7pEfZA2EPSxTOL5O6/qZab6uazXVOVsBfrcyzsudnF8Y4AntWb/Fw7GZS8qOp5fd6S83pqKy4ukqVLGuXGNdcFovGKF+GvszMqhw53SLTzmBw63CF9fSd9+eeORo85e2Nz6IjIyReMeXqXrOONRdiDmw50MWNPxYC3qnau3FQ/3/cjFILOrdlsVPWct/f5/a7+PBW6qBL21LSk8XOytKlRmpoafTMrT1U1NdUTgvRQPC7t527adXYe89XWz87oMWfCXnL7ZkGIeXqEPbiNqp46Lg/PlMb5H5dVtXOlserjPCEmA4zOd1WDXNWrqV6g9XtvKB6XHTt3ufozVeii2n6Y83oqSFbwGhrqCHgeKy0pOd/lc/J3u+7n/toPdzizDfjt3cZMvao7madH2IPb2k7QnMUrF88sksaq2dI4/+PSWPVxzuHZMKeyUuuw19y8z7WFYZMTF2wH6T5UffuOXXkd5zCZKrMRo1T2PAt3DfV1UlNTLQ31dXTUVNzkrZ8vt7RJ++EOebmlTatrVmenA5/35PbNimUi5U28OQh7cBuVPXdcHp4pkbJiuaKyTBrnz5YrKss4f6exWCwmIrktttw873Xjmuu58y8i8Xjcsf+W21U9FbqoHmLkgivC4QqZU1kpDQ11MqcyLDXVCzh/p7lk5e/e790jnZ1R2fv8ftnbvE/5Zi85VyWT2zdLa0Uit/BGIOzBC6/FTvMk5OjimUXnq3KRWUUSKSuWmR+7UK4Il0lkVjEVOx/qdWBMgltdHIuLi5QZt+C1zugxR7Yk7W3e52pVLxyuUKKjYmeUTpxOqK9bdP7/N5yr0DXUG/9Lxc7/amqq5d6aavnG7V+X7Tt2yfYdzyod+nJq0vL2bpGzwuB0wh68cvrd9+XVPjUqez9bsUiuCOvRiITzdHDi4hn0ql6pxkPVn3CpqU6SKuctVRmmvqTxc3LjuZlo6i/sF1BVR5rvwBJj/uHVy+W+9RuVPdtnu/v00BGRgVaR2gdpyELYg1dU2sJ592dreEFgWUNDnZaH37e7tAVQ5aqertvS9jbvk5gDlV2zVOqiGj32Z2U+91TA4Bdz5lTKtq1b5Jebn3KtO7MVtra/J7dvVq2jIUuefJSnAGa0nVBj5MLl4Zm8GAiMoXhcml1q2b9q5QqqCg4LalVvKB53NeRmvFFQzfk1+M8dt39dfvTA/co9LlvjVt7aJFKxXGTWlbywhD14SZXKHnPkoJtcGn242cXxxhs4qzderDeW0+9/uaUtsFU9R7ryOYSqHvxq1coVSgY+S/r2iVwQEgkz15WwB8+91kfYA9xc+Lo5m23limXODMP1kVwb6+zYudvVx6vSbES35kFmU73gUt7I8H3g+953v6Xngx/uEhk8JFJ1Fy8kYQ9e6x5MSPegGt2fdGnMAvXMqQxr9Xjd7OL4DcWGqOu+cE8OSXaLSlU9EXWas9RUL+CLD7735TXXT+jaqoXRhMjbe+i86RIatCArlZqz0N1yLIBvfPENeTU2aKpL6szpF0pj1celcf7H5St185Sd29d2/B35l44u03+uxvmz5ab6+fKVuvlZ/93KSr0qV25VhnSp6uk0WN3txgkqBT0RkegxNbZxNrCFEwHx88f/Sf7Lf12h/Cy+sUXM0yKRm+m8SdgDYW+iq+bN5sUQkW2HT8ja3/zR0u85/d4Hsvdoj+w92iMbXnxdnrnmM7Kqdq5S77Fv7euw3Aio7US/tJ3ol65TCdnwhU/45jV2s4ujDlU9nbhd1VOti2pvb8zVuYKZUNlDUJSWlMiNa65XskPnFAMtxhm9aazp3MI2TmRfUB9/R4nHwXk9o6JnNeilCn5//+t/l22HTygTXj/1+O9y6vj6Lx0nfPU6u9XFcUnj5zirl4bdMR3bdzzr6uNUbTairW58+Qp7NXTiRHCoOjpnguEuI+QxYoGwB7XQnEUdTga0b+3rkNPvvu/5nyfX8Coicvasuq+Z1S1tbnZx1GXYtIhIiQaD1Xt7Y9La9u+u/TwVZyOq0pxFuzNMQI5KS0pk5Ypl6j7A0YTIhwmR0oW8WIQ9qOTV2KCcfu8Dwp4PnX7vA3nsD1FP31vf2ufMwvCm+uxn9rxqwW51S5tbZ/Xq6xZp1ZZehyrNE5ufcvXnqVbVE1Fn7EJNDVs4ETxKn1MtKCLoEfagathTBWFPZObHLnT0v/f4Hzo9+7Osfe6PjtxImDH9Qrn7s/7YruXmeS/O6jmrtzcmzftecO3nqVjVE7G//dXxsMd5PQQx7NXXBfrng7AHjcMezVkMq2ovcvS/l2zc4rYNL75hqtumqf/WFz6hbHdRq9w6XK9bVc8rQ/G46X/X7areqpUrFKzqRZV5LCw6EUScwQZhD5YdyKFphpMYuWCIlBXJxTOdbVW89+jbrt9A2PjSG47dBLj7szW+eG17e2OuVfW0OMivRHg5Zvq1c7OqJyJy4w3qvYaHFDmvV1xcxKIXgeXlTFK2TxP2oKFXac6iHKdHJjS7WNk7/e778ve/dqaBxYzpF8q21Z+x9HvC4QplX1e3KkPhcIUsbWrU7n2v8ra87Tt3ufrzVJ2NGFXlvF41XTgRXF7OJC3VaB4qYQ8QdUYuEPYmcrrKefq9D1zbrrvhxTeke9CZoa8bvvAJiZRZq3LO8Wiwem9vLOs/d6sydIemZ/VUHao+FI9L8/P7Xf2Zqp637Dz2ZyUeB8PUAffRAZewBw2pUtWbMf1Cy4t6P8vHMPS2E/kP9q/GBuXx/3DmTI9u2zd7s4xScLOqt2rlCj5EDtq+Y5erQ8RVreqJiESjqlT22EoGuG1OZZgngbAH7cKeIs1ZrghT1Zuy4LvM2cDXdjz/ZzPXPvdHx/5bj13tnzv3Q/G4tLQdcOVn3UEHTktisVjW126HW6v4qgAAFQxJREFUy1s4Va3qHWrvUOaxUNlDoL+3+vo8+bmVnJMl7EE/NGdRV2OVs91Jm9/M77k9J7tv/vDzn/DVtl63KkO6V/VKPRiqnq0iS1VvjCrD1MPhCs4NIdhhL+ZN2KMDLmEPmjn97vuOna3KOdjMZ+zCZE6PYBDJ3xlNJ7tvXh6eKRu+8An7FyPF7vi7WRnSvQOnakPVqepNpMrYBbZwIsi8/BwyzoewB80wTF1t+RjB0JanSq6T2ze3XfMZX72OLS1trlSGiouLOKun6WuXVF+3SOlxAlFFmrOodlMAcDXseXRu1stxDyDsQbGFv1UXz/z/27v/2KjrPI/jb3ctKZkpnW4MMqUGWkOnATk42ho4e3TawnmulKnZu7KroPTwR5Fkqbl17zauUlQSNetu8XL+ulWrIv5Acx3KebtRykDYc2NbU45gZmqEbo6ZLia77fZbglcu1/sDyxWlpe33M9/v5/Od5yPZbLLJfmf4fGc685r35/N++zwzMFs11Vs501HZY/vm5J51aIj6po23s7XN0Hs3Rueq3pBlubZ17OvYSmaezq5PWARVa+nS2VnOyRL2YGLY02TsAlW9ianeynn4lNqA3zdwVnYfjSsL/U0V3vrFvi3a7sgXZL/fxxD1GbIsy9V7N6asdIXWW6Q6NWrOwlBnc8TjCfmrW9ZLw5b7ZFVFlRzsiLEodt+L3e4EZ35kIezBQMcYpq69dJxlVBnyG975SAa/PK/kWq31K5VUeN1qDX250BDd78xcPS9V9ZzeKhSfYEg4Vb2vrZMmIxdCxYuoYBtiyLKk4e7Giz+aWNawbH/gQXno4Z0sjo3w7FaFvaY6zA0g7MEkfQNnlX1J1zHQeEVg9iypLFS7Pm0n1HTlbO06qWwr8PabQso6sua7NFT961+GP+7sdqx7oZeqejoMVqeq9026VPZozmKOiTrZRvcfIPDN9G/T/gOuPG5VeDWLT9iDaXRqzsLYhcnV3aB23p6KcRuD50bkgXY1X/4WBHy2um/q+0VnryOPE6m9lUqHYk5VZMfcb8BsxESvJpU9tnAaY7JOtgS+mek4dNiVx6WqR9iDgXQ5r7csGOBmXCkMF6kNwz39AzJ4bsTWNZrau7XbvqmTZDIlh2JHCAoGcrIiK2JGVS8eTzjalXQyJSE6cZqgLdp+xdcMgW/6a+rWFs5qwh5hD+bRpbLHeb2prVFudpbasG+juhf7/Iy82n1KyfOILC7wZGX32ededORxdB7APVM5LgxWH+85h8/q1UXWaX9PdDmvJ8KcL1NMtToe3X9Aftj0IxmaoFESxn2uOPy3aUxVeDW7Rwh7MJHqroyEvTR/IVyidiunncpuwz41M/Vys7OktX6l574MDlmWdMSc2Wrjxaqe0zPUxm9PTCZTjlb1gsF5RsxG1Kk5C/Q33fdRx6HD0rClkcA3CTeremzhJOzBQFqd1yvivJ4b6zTT10DzB8elb+CskufQWr/Kk/MVJ2pKoJoXq3puGH+vnKrIjtlmSFifqGOp05jzZcjfwEnO6k0kkegl8E1gyLJcq+r5/T62cBL2QNizh8re1Kiu7M2ksts3cFZ2fnhcTVBZXKD836SLqEPd0pirp1YymZJou3ONWUyp6omIdHXrMRCbTpze/huYSPTKzbesl3g8wSKOD8973nSvqlcVZgsnYQ8mip3UozmL6pECXhaYPUt5M5vpbuVseOcjJY+bru2bOnBqq01Z6QrHtzt6ndMtzU2p6n2s0zB1wp4RfwPt7GywrGFpuLtR2qLtLKZcaI70nEtVPRF+VCTswVjHUoNaPA+qetNTt+Q6xaF/6tW9thOnlc3Ua167NO3bN4PBea7cI6da9nu5A6dbX+j3zGDrmZ3XpylVvXhCnyoLP3DoT8XfQMsalp8+8qg8+dTPM3otx4bSu4UfFQl7MFhPP504zQx77jRpUTlTr7JwrjRVlKR9rea7MFg95VBzDxNa9dvhxlD1J5562tHRAtsMCusJTc7rlZWu4ENAc6obHL3+xpvyvfo7MnZbZ8OWRldHnlDVI+zBULrM1yPszWy9VI5gODbF0N9yNKGkKUtudpa0bljl2fvj1Hkv5uqpt+eNtxx7LNMaHsR7P9PieZQwTF17r6ehOp5I9ErD3Y1pubbOHnp4pyRc7IIbDM6jCydhD8aGvZN6jFzIzc4i7M2Ayq6cg1+ev2KIU9mUpXntUlmY5+Mm2uD1ql4m2LTxdmMaHgxZlqtfOMcrL+N1r7t0NaeyrGF58qmfS8OWRq3OkKbrPfe9+jsca/Q1kW38qEjYg7m0GaYeJOjNhOqtnFd6PahqyuLU9k3P338DBnBjYn6/z6itUbqMXBChOYvu7DZmmYrOrm75u7sb5aGHd3pyREMymZKGLY2u/8ASKl5kzJliEPZwGcc0Oa8Xvp75ejqs22RhL/b5GWWV4Jb1zv4q78V5XCY19bDDy5VLk6p6Y1+udQnJzJTUm1PNqS481gG5+Zb18uRTP5dkMuWJ9TvYEZO/2XCHFpX0f/jx3/OCJuzBVIPnRpQNxLaLLZwzszDPp3QEw2RnOBv2/VbJY+xYs5T7rQDbasxmWlVPRLRpjFESoiOgzpIONacaz7KG5fU33pSbvxuRhx7eaWzoG7IseejhnbL9gQddbcYyhqMChD0YTpfzeoQ9e1Se2/vd4OXDf8vRuJIfBpYFA9K8dik3zaZMqep5mWlVPRF9hqmX8+VTa243T4nuPyA3fzciDVsaXT/rNh3PPv8vcvMt67V6zrse28EL2lBXswQQ0ee8Xm52Fo06bKhbUiC7f6PmF/fLBbrBcyOy8wM1TVla61dxwxSgqmc2E6t6yWRKi0qDCOf1dKdLWOns6pbOrm554qmnpboqLDXVYamuqtTufRVt/zdpi7ZLKtWv1XPb2ngP26UJezCdLmMXVFamMpHqc3uxz89ccs2WowkZ/PK87eu6uX1zfn7QU0Eh06p6weA86e//vWf+PTVVYeOqevGEPs1ZqOzpy4nGLNNlWcMS3X/gYgitrqqUmuqwhIoXuTIkfMiypKvrE2mLtkvHocPa/s1lrh5hDx5wjGHqnhFZXCDRT08rudb4YKdq1MKCgM/V7Zv5+d75dXLTxtsz7vU9Pz/fU2HPxNmIuoS9YHCecUE5kxzsiGn/HDsOHb4YsnJy/FISCkl5eamUhIolPzhPeQC8MLLkswuVxs5ubRodTWbXY828zwh7MF1PakBJtUaFcNFcbojdNbx+rrKw15MauDjSofmD/1Ryzdb6ldwkBUzc/odLRWpvNXJrVKcm88zYwqmvZDIlh2JHjHrOljV8cbvneGMhMCfH/43wN9GMx/HXSCZTkkr1SzyR0K7SeSVbG++hKQthD14Je7qgsmdf3ZLr5IF2tc0T+gbOyqvdp2xfZ/tNIUZrKGJiUw9c6n5Dz1vq0pzFjW13mJo2g5qhTDUEioi2Wy3TIVS8iDPhHkE3TmgT9hYEfBKYPYsbYtPCPJ8sCPiUvjZUVPXc3r7pJVT1zGdqVU+XkQsiE1dV4L6oh8Jepn7GPNPyMxaCsAfCnlpU9dQZ23pp19j8RRVVvdb6lVqEeS9sScnkqp5XGnKYWtXTqTkL28v0/UFAt26SmJ5djzXTfZOwBy85fEqPGXvh6zmvp24tr1V2HRVVvbtKC9m+qTLMr1/HIhjM1KqeiD7n9ULFi3ghaepgBm119KLHH31EaqrDLARhD16hy8gFEZHlQSp7ysKeokY3g+dGJHrCXrOX3OwsaanlF3iCAi7eQ4PHZcR7P9PiedCcRV8dhD2jP18ybZwPYQ+e19OvT3MWKj/qBGbPkspC+4Ev+ulp251aW+tXcRZTofs5MG+0stIVRm8/TGiyjTNUQtjjNQLVQW/X480sBGEPngt7mpzXWxYMcDMUq7vB/rm9voGz9j48FhcoOz+oUjA4z9gP40yv6s3PDxLWXfJxpz4zwW6kOYu2/H4fi0DQA2EPujh8UpPzekVU9by2prnZWdrO1Jtv6GB1qnoi+fnmhl3Tq3o6DYBm7AJ/p0DQA2EPV9A3cNZ25UZZMGELp3LL8/OUjWCYiZbaUrZvKv5A5qweX4JdDXuaVPbKSlfwYtLYnRtvl0jtrSwEQQ+EPbiNYere51aH08rCubK5rIgbQFDAuIBi+qiARK8eZ7HKGbmgvV2PNxP4CHog7IGwd8GCgE8W5rHHPx3qllzn+GPmZmdJ64ZVWq+LaV8WtzbeQ1WPsO6qIcsSyxrW4/3LeT1jAt/jjz7CQmjo8UcfIegR9gDnMF8vjWtb5PzaNq9dSnhXyO/3yaaNP2AhvmJidcwLVb14nGHqmL66SK28+/Ye5iJq9Hny8i+fZ7wCYQ9wOpBwXi9dArNnOdrptLJwrjRVlGi/LibN6Nr1WLPMycnhxfy1LywmPdddj+0wfs3n5Pi1eB5V4dW8AQxTUhKS9/btla2N97AYLiorXSHvvbOXH0sIe8gkulRfdGzN7yVObuXUffvmGFO2cVaFV0tNdZgX8TfCujmdGO/feq8ntuDq0v2S83rm2rb1Xvn1+1ECuwu2Nt4jrS+/wHEAwh4yjQ4dMCOLC+jY6JEwvWONOds35+TkaL+tyO/3caZiAtXVlUY8z7LSFXLnxts9s+46fEmvqQrzBjDY/Pn58k+7n5aXf/k8XVUdECpeJO++vUe20eCLsIfMtDDPJ5HF7lbVmiqYlZRuy/PzJDc7K62PsSwYkOa1S41aF53Pwfn9Pml96QW2b06gLlKr/VbOUPEieWb3zzy37m5i/Ih33FheKq0vv0DoS+NnyI8ffEDe27eXmZQg7GW6lvWlaQ8CE35wLy5gvp5TX9LSXN1rrV9l3ppEarWs7l0449XMB/Qk5uTkyCaNK2ah4kXyysveC+s11WHXqnt+v4/xIx4Ofe++vYdRDaq+W9XeKu+9s9dTuwpgz7ebm5ubWYbMFZg9S/46lC9vHfud/Pf//K9jj7sg4JNfbamS7KxvcxMcMHjuvEQ/PZ2Wa+9Ys1S+v3yBkeuy7M9ukPd/9WsZGTmvTdBrfekFubG8jBftFL4kJpMpSfR+ptXzqgqvlmd2P+3ZqmxFxV/I0aP/IX/4wx8dfdxHfvoT3hceds0110hNdVgi69dJTk6OJJMpGR4eZmGmoax0hbzy0vNSV1crc+awKwT/76rR0dFRlgE9qQFp2t8th099kfbHqiycK60bVtGe30F9A2el8IloWkJ7308iRq/NkGXJD7f/SLq6P3H1eWy84/ty/9Z72bo5Tf/83Ivy+p69Mjx81tXnEQzOk21b782IluZDliXPPvei7HnjrbQ/1lilm0ZFmedgR0zaou1yKHaExZhEpPZW2bTxB+wGAWEPU9N24rS0nfgvaTtxWv70pdpqR2RxgdQtKZDNZUUstAuWt7wvx/oHlV7z0L01ntmKG48n5PU9b0o80etItcjv90l5WamUl5dKXaSWkGdDMpmSg4di0tFx2NHQ7vf7pKYqLNXV4YwMI8lkStr2H5COjpjy90yoeJFUV4elbv06zulluCHLko6OmBzsiBH8vva3xyvdfkHYg4tin5+xfY2F3/FTxdNA0/5u2f2bhLLrbb8pJC3rvdsG/ePO7rRdmzlH6Q/uQ1Z6t4BxD9O37qwtCH6XV1a6Quoi6xiKDsIegMsH96oXDyq51oKAT3qabmFsBgDANQc7YtLZ1S0HO2LS3/97T/4bQ8WLJBJZJzVVYap4IOwBmFxgxz4l23O9tH0TAGC+ZDIlnV3dEk/0Smdnt3bNm6YqGJwnN361xb+6OswWf9h2NUsAZI5w0bW2u3LeVVpI0AMAaGX+/PxLKl9DliXxeK90dnVLKply7Dz2dIWKF0lJqFjKy0ulvKyU6h2Uo7IHZJDmD47Lzg+Pz/j/n5udJX3/GGH7JgDASB93dotlWRJP9F7473ivJFOptG4D9ft9UhIKSU6OX0pKQjI/PygloWI6aIKwB0CdwXMjUvhEVAZtbOP81ztXp31AOwAAbhnfaCieSIg1zaZDJaFiyflq6+X8/CCVOhD2ADjjtteOSNuJmW/hjCwukLa7VrOQAAAAhvgWSwB434X5iTMPernZWdJav5KFBAAAIOwB0MXguRFpeOcjW9doqS3lnB4AAABhD4BOGvb91tY5vcrCubK5rIiFBAAAIOwB0IWS7ZsbVrGQAAAAhD0AulCxfbN57VJZmOdjMQEAAAh7AHRx22tHbG3fXBYMSFNFCQsJAABA2AOgi+YPjkvs5Be2rtFaz/ZNAAAAwh4AbcQ+PyM7Pzxu6xq/qF0hy/PzWEwAAADCHgAd9KQG5LbXjti6RmXhXLZvAgAAEPYA6BT0ql740NY5vdzsLGm7azWLCQAAQNgDMB2D50akJzWg/LptJ07bDnoiIrH71jA8HQAAwCOuZgkAZ4yvvC3M80nz2qUSWVxgK1wNnhuRnR8el5ajCdvP75W/Xck5PQAAAA+5anR0dJRlANKv7tUjEv300gHngews2VxWJNsrSqY1z64nNSCvdp+U1q6Ttqt5Y0Fvc1kRNwkAAICwB2C68nbsmzSY1S0pkOX5eRIuuvbi/5abnSUL83xyrH9QelID0jcwLG0nTkvfwFllz4ugBwAAQNgDMEM9qQH5893/rt3zIugBAAB4Fw1aAIfCHkEPAAAATqJBC+AAldsu7crNzpLYfWtoxgIAAEDYA2CXLpW9ysK50nbXasYrAAAAEPYAqDB4bsT157BjzVJpXruUmwEAAEDYA6DK4VNfuPbYlYVzpXXDqmmNdgAAAABhD8AVuFXVy83OkpbaUpqwAAAAEPYApIPT5/Vys7OkqaJEmipCnM0DAAAg7AEw3YKAT5r+MiSbS4sIeQAAACDsAem2PD9PlgUDcqx/UPm1c7OzpG5JgTRVlDBKAQAAAJe4anR0dJRlANKvteuktJ04LbGTZ+RPX56fcbhbHsyT8PXXSt2SAgIeAAAACHuATvoGzkrfH4dFRCR2cvJOnQvzfBf+8x0/HTUBAABA2AMAAACATPYtlgAAAAAACHsAAAAAAMIeAAAAAICwBwAAAAAg7AEAAAAACHsAAAAAQNgDAAAAABD2AAAAAACEPQAAAAAAYQ8AAAAAQNgDAAAAAMIeAAAAAICwBwAAAAAg7AEAAAAACHsAAAAAAMIeAAAAAICwBwAAAACEPQAAAAAAYQ8AAAAAQNgDAAAAAKTR/wHPIEmq2f5FAwAAAABJRU5ErkJggg==;" vertex="1" parent="Z96atvx6i4o4yFbFgXG3-1">
          <mxGeometry x="37.16" y="220" width="121.32" height="65.86" as="geometry" />
        </mxCell>
        <mxCell id="Z96atvx6i4o4yFbFgXG3-6" value="" style="shape=image;verticalLabelPosition=bottom;labelBackgroundColor=#ffffff;verticalAlign=top;aspect=fixed;imageAspect=0;image=data:image/jpeg,/9j/4AAQSkZJRgABAQAAAQABAAD/2wCEAAkGBxMTEhESExIWFhUXFhoXGBcWFxobGBoVGR0WGhobFRoZHSggGx4lGxgYIzEiJyktLi4uFyAzODMtNygvLi0BCgoKDg0OGxAQGy0lHyUtLS03NzA3Ly0wLy4tLy8tLS0vLTcvKzcvLS0tLS0tLS0tKy0tLS0tLS0tLS0tLS0tLf/AABEIAIsBawMBIgACEQEDEQH/xAAbAAEAAgMBAQAAAAAAAAAAAAAABgcDBAUCAf/EAEwQAAEDAgMEBwMFDwIDCQAAAAEAAgMEEQUSIQYxQVEHEyJhcYGRFDKhI0JSkrEVMzRTYnJzgqKys8HC0dIXJDWT8BYlQ2N0g5Sjw//EABkBAQADAQEAAAAAAAAAAAAAAAACAwQBBf/EACcRAQACAQMDBAMAAwAAAAAAAAABAgMRITEEEhMiQVFhMnGxIzOR/9oADAMBAAIRAxEAPwC8URc/Gcap6VnWVEzIm8C9wFzyaN7j3BB0EVYYl05YbGbRtnm72MDW/tuB+C0W9PtFxpai3d1Z/qQW6irrDemnCpbBz5YSfxsZ+1hcFLqHaiimjdLHVwOY0Xc4SNs0c33PZ80HXRVvjfTVhsDi2MyVBHGJoyfWeRfyuuIOnynN7UM1hxzt/sguNFVNP08YeWuLoalpAuBlYcx5Ah+/xstP/WGrqPwHCJZW8HuzuB8Qxth9ZBcSKmn7ZbSk3bhTWjkY33+MgXl3Sji9PrVYO7KN5a2Vg9bOAQXOirjZvpmw6pIZKXUzz+Nt1ZPdIDYfrAKxY3hwBBBBFwRqCOYKD0iIgIiICIiAiIgIiICIiAiIgIiICIiAiIgIiICIiAiIgIiICIiAiIgiHSVtszDKbrLB077thjO4u4udbXK2+vPQcVXmCdH76sHFMdqHgOGZsRdlIYfdD/oDXSNtj53CyRxfdbaV+ftU9CLBu9pMZtblrKSe8Nsvm3u0Dqqoc0E9TE4tYOBI0c88yTe3d4lW4sXktory5OyNXVZtPhtL2aLDoyB89zWtv33ILz52Xs9JjzoaOIt5Zj/ioCi3R02OPZinPf5TibafDajSqwuM/lNaxxHgbNI8isQ6LcIxBhmpHzwAGzt+TmRaUcBxa6wUZwXDXVE8UDN73WvyaNXHyAJUv2+xhsLW4bTdmONoElt7idcpPxdzLvFU5MFe6K15XUzW0m1uHmnrcIw0CKjpW1EjdDM8NJJ75CNf1RZe3dKNRfswQgcu0fjcfYoEiur02OPZVOe8rAj6Q4pCDU0Ebra5m5XEd4Dx/NS2HaBlZHloalkcoHuSM18Mptp3tuFSS9MeWkOaSCDcEGxB5gjUFct01J42dr1FvdMcZ2lxamkMc0pYd47EZa4c2nLqPiOK+UfSTWsIz9VIOOZpB8i0gD0K6Wz+PxYhGKGusXn71NoCXcNeD+/c7ce+G7QYNJSTOhk4atcNzmHc4f24EFcpWkz22rGpa1o9VZ2S6d2EYv8AJ1MAgqHaCQWa7NwyyAWPg8eRUdz4hs1K0Empw17/AKt9Tb8W/j9F3cd3BKsTYfGW1bH4bWN61j2ENLtSWje0nfcDUO3i3cFTm6ftjuqtxZ9Z0ssTBsViqoY6iB4fHILtcPsI4EHQjgQt1U30IPfTVuKYY5xLInlzA78lxYXD85pjPkFciyNQiIgIiICIiAiIgIiICIiAiIgIiICIiAiIgIiICIiAiIgIiICIiCj+heUiDG64++4k37wJJPtePRRoKSdEUJGF41D85r3gjwjI/pKja3dHxLH1XMCIvq2Mqd9GELYxWVr90UeUemd3wDfVQipndI98jzdz3Fzj+U43PxKsTZrDZJMGmjhbeSaQjeBpmY11yeGVpWm3YCGEA1ldHEfojKPRzzr9VZq5Kxe0z+l80tNYiECRTqp2EiljdJQVbZ8u9l2knuDmnQ8gR5qDEW0IseIO8HvV1Mlb8KrUmvL4iIpovoP/AF/ZWM533Vw4k61dN6uFv6mg/rNWjh2xEUcTJq+o6kP92MWDtdQCTe7rfNA0Uj2Qgw2KoLaWd7pXNLSx17EDtbi0ai3xKyZctZ3rzDTixzG08SqMKQbAX+6NJb6TvTq5LrQ2hgDKqqY33WzSADkMxsPJd7ospc9cHcI43u8zZg/eKvyW/wAcz9KaR64j7b2yMN9p8XcNwiaD4uEH9irYVW9EjTNX47W/NfU9Uw9zC8/umNWkvJemIiICIiAiIgIiICIiAiIgIiICIiAiIgIiICIiAiIgIiICIiAiIgqLYCEQ41j1Ed0vyoB4tJJ08pvgoVNEWOcw72ktPi0kH7FO9qP9ptLhtTe0dVEYHd7+00A+bovRcDbqi6quqW20c7rB4PGY/tE+i2dJbeYZeqjaJcBERbmNY+HYhJDgXWRPLHiQtzC1wHS2Nr7jY71A6OuLJmTPAlLXhxEnazcw4n7VMm6bPnvl/wD1H9lA1RiiJ7v3K7JM+n9LCodrYZa6jMNMIbuLJHdkF7Xiwaculg7KbnXTgo7t9RiKvqABYOIeP1wCf2rrk4S+08BG8SsP7TVKOlhtq5p5wMJ+tIP5JWsUyREfBNptSZn5QxbuCBpqaYO93ro7+Gdq0l9a4ggjeDceI3K6Y1hTHKwtt8cmpcTErQ12WANa14uMriS61jcG43jkvOwdfJV4m+oltmELtGiwAu1oA9T6r50gsFTS0eIM4tDJLcC7n4PDm/rLB0Ryf7uVv0oT8HM/usmkeGZ9+GnWfLEe3KI4vNnqKh/0pZHernFTHY2YUeG4jiDtLNIZ3lo7NvGR4HkoVVQnrXsAu7rHNA4l2Yi3qplt/RfIYVgUZ7dRI0y23iNhL3u+td36hXeptpSK/JgrreZSToZwn2fCqa/vTXnd39Zq39gNUxrqtsUb5XmzGNLnGxNmtFzoNSvcEQY1rGizWgNA5ACwHouZtf8AgNZ+gk/dKwNqN/6uYV+Pk/5E3+C+Hpewob55B/7Ev+Cw9B8TThMN2g/KTbx+W5T11Mw72N+qEGhgG0NNWMMlNM2VoNja4LTyc0gFvmF1FU1bRNoNo6L2ZojjrI3CWNgs0kCS5yjQahh8Q7mVa0kgaCXEADiTYeqD2i16eviebMlY88muafsK2LoCLBUVkcfvyMZ+c4D7SvtPVMkF2Pa8c2uB+xBmRcDbyufDh9bLE/JIyF7muFrhwGhF1k2LrHy0FDLI7NI+nie9x3lzmNJJt3oO2ixVFSxgu97WDm5wA+KU9Sx4ux7Xjm1wI+CDKi+BwWOepYwXe9rRzcQB8UGVF4ila4BzSHNOoINwR3ELCa+K+XrWZuWdt/S6DZUW272ldSRxtiAdNKSGXFwALXNuJuQAO9SlVx0oXjqaCpIJYx1j4tc19vEgH0VmKsWvESryzMV1huU+x1XM0Oq6+UOOpZGbBvdpp6Ben7BysF4MQqGu4Z3EjzsQpfh+IRTMEkT2vaeLTfyPI9xWyuzlvBGOuiC7L7S1DKk0FcAZPmSADU2uAbaEEDQ2HI6qRbT7QRUcXWP1J0Ywb3O/kBxK1sX2VZPVwVfWOa6LLoALOyuLtTv4kKLuj9vxlzX6xUwPZO67CAQfF515hqlpW86/W6Gtqxp97NijosTrx1ss5pYXe6xgIcW89NfMnyW1/p2N4rqnNzzcft+KnCKM5be2yfij33V1WvxLDflDJ7VTj3s3vNHefeHjcjuU0wPF46qJs0R0OhB3tdxa7vC3pGBwIIBBFiDuIPAqutlW+xYrPRg/JSDMwcrDO39nM3vsF3a9Z+YR3pMfEuhsNik0tZiDJJXPax5DGnc0Z5Bp5AeinCrvo6/D8U/SO/iSKxFzNGltvpLFOtRERVLFbdOtC40MVWz75STslB5NJDT+1kPkub0k5Z46Gvj9yaIC/iA9nwLvRWZj2Gtqaaenf7ssbmHuzAgHyOvkqp2MDqrBamheL1FBI5tuPYLnNA8usYPzVbht23iVeWvdSYQ9ECL1Xmp9iP8AwGmy7ut7X15f52UCU92FmZVUlRhsjsrjd8R9DpzLXDN4E8lC8SoJIJHRStLXt4cCObTxB5qnFtM1nnVbk3iLQ3dkaIzVlMwD/wAQOPc1naP2fFdHpJqxJXy23Ma2PzFyfi4rr9HsTaenq8RkHutLGd9rE28XZW+RUDmmc9znuN3OJc483E3J9SlfVkmfjYn00iPl4REVypPOjqtZNHPhsx7ErS6PuPzgO/c4eBWHo/o3wYoYXjtMZI13hYEEdx0PmofR1LonskYbPY4Oae8fyV0UMkEtsVYCXmDIWt1Oa4OWw+dfs+iyZvRr8T/WnF6tPmP4h+yuDCXFKuVw+Sp55Xkndn6x+QeVi79ULZ6PW/dDEq7GHXMTT7LS3HzG2zOb48/y3Ba+2cslLRw4ZB2q7EXuzkX06w/LOJGoaL5QeQJ4FWHs3g0dHTQ0sQ7MbQ2/N29zj3lxJ81ky37pacdO2HTXI2v/AAGs/QSfulddcja/8BrP0En7pVaxVvRdtbLTYfHEzDaqoAfIesia0sN3E2FzvG4+Clh6QKnhgtcTwu1oHrdeOgz/AITF+lm/fcrAQVts9gdXUV5xfEo2wdVGWwQB2YsbZ13PI0vZz++7twsFp7L4P93DJiFc576YyObS0ocWxiNhy55A2xc4kW38+FgLLxSnMkM0Y3vje0eLmkfzUL6E6sOwyOA2EtO+SKVnFrs73C44aH4FBtYh0YYa9vycHs8g9yWBzmPYeBFjY+YWhsbtJVGmxOmnPWVlBnbmt99Aa8xOI4k5PsvqVYZVWbG4mxtZtDiZv7M17Gh7RmzCEOD3NtvAFj4OQeejLZqgraRlXUhtXVSFxldM7OWuzHshhNmi1uHHlZdDa3o/EbBU4REIKyNzS0RuyMkbcZmyNJDCLEnvtbitqLYbCa5kdZFCY+tbnbJC50Tu1qSQ02Bvv03rlbSbL1OHU81ZR4nVfIt6ww1D+tjcxupFnbjb+2m9B0ulDZ+Gegnq5oj7RDSuLSJHAMdbNYhrsrrOJ3grkYJhlHh2Ew4u2E+0No2PuZJC10krGixaXZQC5w3DS+i7u0eJmp2fnqS3KZaIvLeRcy5t3LlYrhrqjZaOJgJd7FA8Aak9WI5CAOJs0oPeyewEdTFHW4pmqqmZoktI49XG12rWsYCBoCPiujiuwMMDXVOGt9mqYwXNDHO6qUAaxyxk5S1wuL6EEg8F29hsYjqqGlljcD8m1rgD7r2gBzTyII+xbm0WLx0tPNUSuAaxpOvF3zWt5kmwA70FUbNzF2y1e7UEmc947QXV2L2FhrqWnq8QDpnOiYIYi94jigaAGWDSLucBmJP0lyNmSTsrXk7/APcX8cwVobEj/u+h/wDTxfuNQQrEKZ1TWswSmc+noaWFr6gxuOdwNskIeSXAWOuuvavuCkg6N8KyZPYYrfS1z+PWXzX77qInAoX4/XQ1D5WdfFHNAY5ZIs+UBrxdhGa1t3CxUt/09pfxtX/8yf8AzQcXATLheJR4c6Z8tJVMc6mMhzPikZq6PMdS227y71PcQoY52GOVgew7wftHI94UEiwXDIcUpace0yVbGmZmaaWRsbdQS/O8ht7bra3HMLPtBjc1PitO10pbTPDbtNsuocwm9uDrFTpWbTsje0RG73U9GsQdmp6iWE+NwPAizvisRwfGYPvVU2Zo+a+1z9cf1KfhFLzW990fFX22QfBdt5BO2lroOpkcQA4e7c7rgk6E6AgkLR2A0xLEwfezyenWuv8AaF56WwM9Fl++Xda2+12W/aXjGy7D8TjqyD1M4s8gbiQA8eNwH9+quiImu3vH8UzMxbf2lZiLHBM17Wua4OaRcEG4IO4gr2sjU+qusV1x+ntwY2/1ZD9llPq2rZEx0kjg1jRck7gFAdhon1ddUYi5pDLlsd+/TT81gse9ytxbRNvpVk3mI+33o6/D8U/SO/iSKxFXfR3+H4p+kP8AEkViLuf8/wDhh/EREVK0VVVx+5m0DJTpTYkzI7kKgEAE+eX/AJrlaqi3SRssMRopIRpK35SF260rb2F+AcCWnxvwQVdtlg3stVJGB2D24/zHX08jceS4inWBVzcbouolIjxGlu1wfoXEaEkb7OtY/RcPC+pgvR/VSTBs7DFG09txLSSOTLHUnnuHwXo4s9Zp6p4YMmG0W2fNgdnXTSCqe4xwQnMX3ykubrZp4AcT5eGXEulzC6id8E9I+WEOyxytaHFx3Ehtw5oJ3WNzpoF254YsWE1BTT9VQU2WOUwWL5n6nIw6gRttqbHM7uFzyKWLBMNeHQUkks7D2XStdcOHEGWwab8WtWW97Zbaw01rXHXSUwxikoGUUNPK51NA8gtYSQ+5u+zr5joTc33aXVcbYbNmikaA7PFILxv46WuHW0uLjUb7rc9ircWqOscwtZuzEERxs5Mv7x8N55Dd3ulSmbFTUMTbkMJaCd9msA1V+PWlorrzypvpeszpwrVERbGUJVs7PRw4TE32qoIfNZxjAJa06AkAAnS4BduNu5Vdh0WaWFv0pGD1cArR26pMNlnYKqvbTytjADXSMb2CXEGzxzvxWXqLRrFZ4aMFZ3mOXIxXZL2iudiNPjQje4ZW2bG7JH9BvaGnlfUrdp9lXTkxSY9Vyutctp3xx2HfkBNlxH0uz8PalxES24NkDr+UTS4+S0a3pMDh7DgNE4vdp1nV7r6Zgzj+e82FtQsVopH4y11m88w29hmVNHj1Rh7KqSppxFnf1ry4s0aQTyeC4A2tcO9LZxaiE8M0JOUSMcwkakZgRcDzUT6MdiDh8Ukk7+sq6g55nk3sdTlBO/Ukl3EnuCm6gm4WxezTcPpW0rZHSBrnOzOAB7RvuC7qIgKG41sLmqH1lFVSUdQ8fKFga+OTkZI3aE96mSIIHNsfiM4MdVjDzEdHNggjic4cQXi5F1KcLwGnp6YUkUTRCGlpZvzB3vZr+8Tc3J5rpoggdHsJU0l2YfiT4YSSRDNEyZjb6nIXWcBfv9V9q9iKurHV1+JvlhuC6GGJkLX2N7PcLuI7r+inaINCrwiKSnfSltoXRmLKNLRkZbDlYKL4Js5LhjC92ITTUkETz1BiYSGgE6OaMxsNwCm6+OaCCCLg7weSCvcO2Poaxra/D6ippRNdxNNJka4gkHPG4FoNwdABqFv/APYymgvV1dRUVRhBka6qlzMjygnM1jQG3HMglY4uj91O55w+vmpGPcXGHKyWEE78jX6t8ilRsHNU2bX4lPURAgmFjGQxutqA/JcuF+9ByOjbBPasBfA8ujbUumINu0GOeQCAfBWHg1AKeCGAOLhFG2MOOhIaALn0WelpmRsZHG0NYxoa1rRYNaBYADgAFlQcHavZSCubH1hcyWI5opojlkjdzaeWguDpouMNncXAyDGAWfSdSRmW3je1++ym6II7spshFRGWXO+aolN5Z5TeR/cODWjkO7fZZtqtmo62MNeS17bljxvBO8EcQeXcu4i7EzE6w5MRMaSgFJTYzSARs6qpjGjcztQPFxafUlZziuMu0FFEw/Sc8EfxFN19U/JrzEIePTiZQnBNkJnVAq6+USytsWMb7rbbr6AaHUAC19dVKsVwyOojdFK3Mx3qDwLTwI5rcRRteZnVKKREaK/h2dxGhJFHM2WG9+qlsD8dPMEeC2DjOM7vufHfnnFv4im6KXk15iJR8enEyrfENl8TrQ41M0bABdkQPZzcL5dB4kuK6WweNSh33PngLJIW6FrbNyj6VtATwI0cpsvmUXvbXn/14n1XZy6xpMEY9J1iVdU+zeJwVFTLTuhaJZHO7Rv2S5zm6Fuh1W91GOfjaf0H+CnCJOWZ5iCMURxMoP7Pjn42n9B/gs0cGM21lgv4D/FTNfFzyfUHj+5fURFWsV5t30bmpmFdQzey1rfngkMeRoM5bq020uAbjQgrl0eyGPVPyWI4k1tNue2DKJHt+jmbG2wPEknwKtdEFOjoxr8PqX1GD1TAx2+Ga+rb3DSbEPA4E2I5rrO2nx2PSXBY5T9KKZtj32u4hWYiCl9t8cx/2GaokjioIWgAtY7NO7MQ2zXC+Qdq9xlOi2NqnXwnBDzgj398Me9Srpnjvg9b3Bh9JGKKbQa4LgruUUQ/+oD+Suwf7IVZvwlC0RF6jznY2Phz11I3/wA1p+r2v5KQnA6fEtoMSZVRCWOGniYAS4WcQw3BaQRvcN60ejGDNiEZ+gx7/hl/qXe6K/la/Hqn6VUIh4R593qPgvP6ufXo29NHp1dql6LMIjN20LD+e+R49HvIUnw7DIYG5IIY4m8o2Bo+AW2iytIiIgIiICIiAiIgIiICIiAiIgIiICIiAiIgIiICIiAiIgIiICIiAiIgIiICIiAiIgjPSXTdZhWIN3/IPd5sGb+lQCnf1+zdC9uvUuDXd2Vz4/5hXBVQCRj43e69pafBwIP2qiujzE2YbNW4JiXYjkecj3aMJcMt77mte0NIPAjXVSpbttEo3r3VmHERTPEejiqa49QWTRnVrswa63DMDp5grLSdHMjRnq54oIxq45gTbxNmt8dV6fnx6a6vP8N9dNGToxAhbXVr9GRREXO7QZ3+ga31XR6BaVww10z/AHqioklJ+qz7WOPmoxtDjDa5rMDwYF8ZI9oqNcgYDdxLuIJ1LtxsA291cOB4Wylp4aeMdiJgYOZtxPeTc+a87LfvtMt+OnbXRvIiKtMREQEREBERAREQEREBERAREQEREBERAREQEREBERAREQEREBERAREQEREBERAREQFG9stiaTEmBtQw52g5JWG0jb8juI7iCFJEQVHD0TV0HZpcbnji4Ms+wHg2TL8Atqn6HGyEOr8Qqqu3zXOIb55nOd6EK0kQczAcApqOPqqaFkTOOUak83uOrj3kldNEQEREBERAREQEREBERAREQEREBERAREQEREBERAREQEREBERAREQEREBERB//2Q==;perimeterSpacing=6;" vertex="1" parent="Z96atvx6i4o4yFbFgXG3-1">
          <mxGeometry x="216" y="234.68" width="93.72" height="36.5" as="geometry" />
        </mxCell>
        <mxCell id="Z96atvx6i4o4yFbFgXG3-19" style="edgeStyle=orthogonalEdgeStyle;rounded=0;orthogonalLoop=1;jettySize=auto;html=1;exitX=0.5;exitY=1;exitDx=0;exitDy=0;startArrow=blockThin;startFill=1;endArrow=blockThin;endFill=1;strokeWidth=2;strokeColor=#4D4D4D;" edge="1" parent="Z96atvx6i4o4yFbFgXG3-1" source="Z96atvx6i4o4yFbFgXG3-7" target="Z96atvx6i4o4yFbFgXG3-11">
          <mxGeometry relative="1" as="geometry" />
        </mxCell>
        <mxCell id="Z96atvx6i4o4yFbFgXG3-7" value="" style="shape=image;verticalLabelPosition=bottom;labelBackgroundColor=#ffffff;verticalAlign=top;aspect=fixed;imageAspect=0;image=data:image/png,iVBORw0KGgoAAAANSUhEUgAAAYQAAACCCAMAAABxTU9IAAAAclBMVEX///8Nl00AkT4AkkIAlkoAjjcAkkHo8uwAlEap0La318KgzK/R5djJ4dE1oGDD3syv1LxrtIVKp22Nw58AjTT0+fbj7+eZyKkqnVo/o2aQxKLc6+Hv9vEnnFhhr35FpWpUqnWCvZdxtop6upFarXkAiispbxSeAAAMR0lEQVR4nO2da3eCuhKGJVzEW22t1taqRdv+/7+4FRWTuWVC3euss/a8H0Ug4SHJZDIZBgOTyWQymUwmk8lkMplMJpPJZDKZTCaTyWQymUwmk8lkMplM/0nNj02z2Kz+18X4N/Q5em2aw+gz9bzpZt80m9Gb+KftUKtttJw7VxdFkS9HxMHheD6WS0LrjTtvfGia/Xra44qTl6Z5eU56Vca7Mj/Vrc7L3TzlvFnmzuflVdkIj2+xdFotG/mGb8siu6icgEPbQ1W2l3gZplRhMN+3p7nyOINHCtc+FJetk644mD9dHmf1S70qtD7f3a1qWeGeom9jp3H3SLK6ZBvRyGV6ubF4x/fuhtkyfHc/y/xWFLKVMNouyrqrwkdQ9UN5u1lRFRCQoOHH/XG6H+VJ8997zc53XGqb39uvf1rG/a3OUpRLd3z2eNZ7/8iw9K6xVDfnaemXrvBPfPavWJQb7SXnpf843avqpKH/KC91UGJ/CR5vBfuHqyZVGoRv4Y4Lv35Lv8cNy+J0FTgxgFW/U8jDI+6ou+RoCa6oGmZ/0Jta1LoeKbxd8UH+aQXrGdNSGFqDB+O8FrsNy1I9qyqAGHj4nuG7UzWaS47gJXNNU1gBcu3z3Gnu9wn6+pK0BV5zfH1RDMy2rEENK2/4GIePrJaaU6dtHfTDl4vexpMX9G7mi/glEQPds3yjhs1aM57Ad6Wk2s8wZVS+yLGv8TS4mA9hFKIunhTlH+wwg/tIQxyMU8AMTi1bUZIx2WU7xTgEIThqQMcvVFwVd8fZQyEsqKIVX9ej7wShGAWKQVYqikJDyErZVDxLA+EzdURo68p1JiEEv7ftAeGbqfj1MNVMIhQmZGX7twR5fLxIA2FBVSUqzqJ4JATyrc3uEI5kE5Yo0Ax4090TB6EQDfazFBAI80Mjbmx+IAS2ZDcIyDq63pSlQDPIao1py0HI6lhFFBCojlUjZmx+HIRtzpXsBoEzrTkKDIPMaSZdLIQsf5HPjEMYp5tGV9Fj8+MgEMbpVd04SvdHHAWOgao3EiBkjpkDXxWHkMGq1pzjDlaYHpsfBuGDt9k6CFvuDaIocAyyUuVBESBkpdiUohCQwyL/mU1npA6wxuTY/CgIR2ECebcoJ3oKLINc5+yQIGRO8gpHIcCqCnPhwSFX/PdBENine5Zn1mOHzu3OX+CCHAPdpDECoXgXzoxBgM9VbliwGNTY/BgIU8JR4xXS++dOR4FnkCuXNkQIWd3wZ0YgIPMi9D1DzeHfCU/oQyC8iQzCCa6Kwt8ZRCBk1YE9MwIBOSwi078G/J9wwgG3hddW9BBWvGHUKvQyKCg8gEEMQlayy1QyhDfUECKeTeTqw2PzI3xHgmF0qW/49yiFRzCIQshKbqFNhrBHDSG26r0G18NP8gEQJMPoUl1wQoSCwEC/TByHUNQMURHCDC1u8P1aV1/QUaCx+e8Q1tHpI3J6shTqL4mBcmHsIgQB3bNmLEsRwgfseVn/9F3InwPH5j9DGKNnlsPqYs8zT2Fx5JimMUAQ6jVqsDm9xCNBQA6LShM1Aj0FcBj5q3WEHetuBO0Hwv3PUij4A0kMEAQ3RcZi5siuRIIAHRY6Fwqa3oGx+Y8Q8HJmvkdGHLUGw1JglMoAQ5gNNqiRlZRXU4CAHBaRcKLukmURqA4ni7PgsG89qyCgdZqzo1gDIZFCMgMKwmCPeiTKlSNAgBQlh0Wg769FoKdgkr0Njn14ZdJAgBORU/NcKSEM3hMopDMgIeB3hrowD2GT5LB4hBQQ8HKmO1PUQUig0IMBDWGF1jyIJR4WAoqikZwfj1EcAvbaXZbRlRDUFPowoCGgmCJqiYeF8I3Mvj6h0kmKQsDLmVdrQwtBSaEXAwYCYVGjKBgOAvKQ1ZElugcoBmGLvHa31qmGoKLQjwEHgehCYZgtBwG54enQvIcqBgF1r11gnB7C4ClKoScDFgIRGwXcoAwE7LBQBzT3VwQCenxFfXsxEiBE20JfBjwEvEJc5MErzUBADgscOzObbF5uWk+iuk+2gyVRvzAyhBdkcrvOvE2BEGkLvRkIELZoWAhNJBoCclg44Asf7p3L8/qmPKr7no/prx8c8KtdT8BeO2/ymQRBpNCfgQBhMEOjWWAi0RCgaQRXSEdlqg/g7vHo57YYo2r4OzfSIAy+2CWhYtebgQSBcNQ6zw9HQ4CrAnUYn89FH/LyHNq9IGCvXeCQTITABzgXish5ThIEykS6H2bGBFjK2r8bNhVj8j0efSAMkdcudEilQdgLqy+cy18hEQJlInVLPAwEOCjkvhP7kBwp73s8+kDAhlERmBdJECQGf6EgQ1gRJtLtGDdPgAGo/jSBDDgXK+Z3HT0gIK+dZxi1SoEgM/gDBRkC4b/oTCQOApwo+Esz6Q3Bf2TpEA7oscGNFwkQYgwUQdSMIhBwPFBnIrG+I/j2ea6j1A1sYaxSMgTCsoD7+PQQ4gx6t4UYBGKJ5xoozEKA0S6eE/UpsTsKPR6pEGbYDYkC0NQQNAz6UohCoJZ42v/w6wkwAPI+uP5tU3MiBLxpkegutBB0DHr2SHEIxGjamkg8hBWM7u2Mwlj8GxAI0UiEgL12GXYlKiH8qDvSPhQUEFYVaSIlrDHfl5inZQIFmCQgDQJ2MThikVYHQc+gFwUFBMpE+kiLtrhHEE0Lp8WA9mEnQcBeO3JHqgpCCoM+FDQQqKCpY1LckT9je/4qS3q/DrgHCtFIgYC9dvTebA2ENAY9KKggEPa2m+CIJe8E6OgKI1HpjFPhhv1oLKoE4YtwPtKR+QoIPAOuTadS0EEg/BduD7scHwJc09VkmwAOWByJrIaQ4UAhznaMQ2AZFBm7ypNIQQkBL/GgH+So7Pjm9M/w5SVCNAAEb6ECQiAeGLPGGoXQ8AxW/PpCGgUtBLzEAxVCGIL+IJ6zBEzkCGogINhb845CoAyjVjEIQjs4Y2W3OyRR0EKIbPXK0E4dmGMnFgD2HI4IVIiGOiobacmGYUYgRBgIa20pFNQQwnxkhOCeNc1+TP7vjlin6g3B8THhMoQoA6ktSLsuQ+khECZSeCYYSPkZGyUQFk/uKekLQcpNIEJQMHhIj5QAgc4QdD8TWjPA3SGGx8NFyJwaR3tCEJ1qEoRXdg9IMMz/nUIKBMJE8s+EEOCMTdooAkZlOqthPwisYdRKgID9x8wVWQrM3AQpCYJoIuHcFnDGVrFPA+ROLQryX/0gsIZRKx4CimLrSoeoshQ0GdQGiRBEEwlDQDM2LtMDGpXp4aMXhEiKDx4C5/ClWhZLQRcLnQZBMpGIfEewhu5IhtiN4OjBZFDsA0EwjMgidhC4NJY12btxFOQ0BjclQhBMJALCEO0op4PsYGgAU4YeEGJJm3gIzIBAM+ApxD0Fg3QIvIlE5cBLzop6VvGFL9QqHULNXaoTB2FOQ+AYsBRU4dDJEFgTiYIAO3uV2NznyRBkw6gVBwHtdGnFM+AoiIlybkqHwJlIjmp4SSnjrxVle5BkCGK+pos4CGTQqcSAo9AnJacicR6T7JTeC5Ic7pWV7JML8cchaDKvAwhdV0imD440LJJCn+S0ZJ5feA5JgU6cwPStvIQM3zwEMkMHufsaCkK4za4JCDEGNIU+EFR7m1DKuox30PHB5LSkbDBBWf3JBDLDMi4PARQwHbqpDMpSk9W7+KMhKGi6IxAnrRpHqFX0MPDXU2KmZu4yl9v6dVz6flZss5UqBrB4HVmU4kPD4PTKodNUE4UQuSoRyEkNXkfnypiWs1xMTOz3baEhC6fyRan9Dk4Q23b3l6xABXUMTrWFHzRQ7aMf+iEotS4RyEkbEEDEL5vANTZRfN7+Vv43dUJD1vu+z0lVps8hsLhTqKu7hReGa7hGuwX1O2haWkfq8J4atorb1Z2mOy+lbM0zSJqxxT758NahR2/69OP8SafzNWqnbc8XHZfnrEfnb2stfCvba+z1Us7TG2jsbQjTL+ys9mV1dh64mJ8FaN6UrvU6VOVC9FTm6k98/cZe4Gl9DgcsyC9IfY6OH65yi++kz5SdNFz/1FX28woMw9flBWpe7tO+GvZdVi2HumwSzto+b9abSfpH3Vaz0Wa93oxjW+bmWikcLZN354pD2lPpqc/v3enFWIzSb/a8P714Bfpym8lkMplMJpPJZDKZTCaTyWQymUwmk8lkMplMJpPJZDKZTCaTyWT6v9c/JfW2yH0PjtoAAAAASUVORK5CYII=;" vertex="1" parent="Z96atvx6i4o4yFbFgXG3-1">
          <mxGeometry x="44.31803921568628" y="70" width="107" height="36" as="geometry" />
        </mxCell>
        <mxCell id="Z96atvx6i4o4yFbFgXG3-20" style="edgeStyle=orthogonalEdgeStyle;rounded=0;orthogonalLoop=1;jettySize=auto;html=1;exitX=0.5;exitY=1;exitDx=0;exitDy=0;startArrow=blockThin;startFill=1;endArrow=blockThin;endFill=1;strokeWidth=2;strokeColor=#4D4D4D;" edge="1" parent="Z96atvx6i4o4yFbFgXG3-1" source="Z96atvx6i4o4yFbFgXG3-11" target="Z96atvx6i4o4yFbFgXG3-4">
          <mxGeometry relative="1" as="geometry" />
        </mxCell>
        <mxCell id="Z96atvx6i4o4yFbFgXG3-11" value="" style="shape=image;verticalLabelPosition=bottom;labelBackgroundColor=#ffffff;verticalAlign=top;aspect=fixed;imageAspect=0;image=https://upload.wikimedia.org/wikipedia/commons/thumb/0/00/Gunicorn_logo_2010.svg/1200px-Gunicorn_logo_2010.svg.png;" vertex="1" parent="Z96atvx6i4o4yFbFgXG3-1">
          <mxGeometry x="35.099999999999994" y="149.25" width="125.44" height="27.5" as="geometry" />
        </mxCell>
        <mxCell id="Z96atvx6i4o4yFbFgXG3-29" value="" style="shape=image;verticalLabelPosition=bottom;labelBackgroundColor=#ffffff;verticalAlign=top;aspect=fixed;imageAspect=0;image=data:image/svg+xml,PHN2ZyB4bWxuczpkYz0iaHR0cDovL3B1cmwub3JnL2RjL2VsZW1lbnRzLzEuMS8iIHhtbG5zOmNjPSJodHRwOi8vY3JlYXRpdmVjb21tb25zLm9yZy9ucyMiIHhtbG5zOnJkZj0iaHR0cDovL3d3dy53My5vcmcvMTk5OS8wMi8yMi1yZGYtc3ludGF4LW5zIyIgeG1sbnM6c3ZnPSJodHRwOi8vd3d3LnczLm9yZy8yMDAwL3N2ZyIgeG1sbnM9Imh0dHA6Ly93d3cudzMub3JnLzIwMDAvc3ZnIiB4bWxuczpzb2RpcG9kaT0iaHR0cDovL3NvZGlwb2RpLnNvdXJjZWZvcmdlLm5ldC9EVEQvc29kaXBvZGktMC5kdGQiIHhtbG5zOmlua3NjYXBlPSJodHRwOi8vd3d3Lmlua3NjYXBlLm9yZy9uYW1lc3BhY2VzL2lua3NjYXBlIiB3aWR0aD0iMjIzLjgwNjI3NDQxNDA2MjUiIGhlaWdodD0iMTIxLjQzMjAwNjgzNTkzNzUiIHZpZXdCb3g9IjMxLjI1MTczOTUwMTk1MzEyNSAyMy4zODgwMDA0ODgyODEyNSAyMjMuODA2Mjc0NDE0MDYyNSAxMjEuNDMyMDA2ODM1OTM3NSIgdmVyc2lvbj0iMS4xIiBpZD0ic3ZnMjAwIiBzb2RpcG9kaTpkb2NuYW1lPSJkb2NrZXJfd2hhbGUuc3ZnIiBpbmtzY2FwZTp2ZXJzaW9uPSIxLjAuMiAoMzk0ZGU0NzU0NywgMjAyMS0wMy0yNikiPiYjeGE7ICA8bWV0YWRhdGEgaWQ9Im1ldGFkYXRhMjA2Ij4mI3hhOyAgICA8cmRmOnJkZj4mI3hhOyAgICAgIDxjYzp3b3JrIHJkZjphYm91dD0iIj4mI3hhOyAgICAgICAgPGRjOmZvcm1hdD5pbWFnZS9zdmcreG1sPC9kYzpmb3JtYXQ+JiN4YTsgICAgICAgIDxkYzp0eXBlIHJkZjpyZXNvdXJjZT0iaHR0cDovL3B1cmwub3JnL2RjL2RjbWl0eXBlL1N0aWxsSW1hZ2UiLz4mI3hhOyAgICAgICAgPGRjOnRpdGxlLz4mI3hhOyAgICAgIDwvY2M6d29yaz4mI3hhOyAgICA8L3JkZjpyZGY+JiN4YTsgIDwvbWV0YWRhdGE+JiN4YTsgIDxkZWZzIGlkPSJkZWZzMjA0Ii8+JiN4YTsgIDxzb2RpcG9kaTpuYW1lZHZpZXcgcGFnZWNvbG9yPSIjZmZmZmZmIiBib3JkZXJjb2xvcj0iIzY2NjY2NiIgYm9yZGVyb3BhY2l0eT0iMSIgb2JqZWN0dG9sZXJhbmNlPSIxMCIgZ3JpZHRvbGVyYW5jZT0iMTAiIGd1aWRldG9sZXJhbmNlPSIxMCIgaW5rc2NhcGU6cGFnZW9wYWNpdHk9IjAiIGlua3NjYXBlOnBhZ2VzaGFkb3c9IjIiIGlua3NjYXBlOndpbmRvdy13aWR0aD0iMTkyMCIgaW5rc2NhcGU6d2luZG93LWhlaWdodD0iMTA0MyIgaWQ9Im5hbWVkdmlldzIwMiIgc2hvd2dyaWQ9ImZhbHNlIiBpbmtzY2FwZTp6b29tPSIwLjQxMDQ3NjE5IiBpbmtzY2FwZTpjeD0iMTU3Mi4zMzMzIiBpbmtzY2FwZTpjeT0iODg1LjM2NzgzIiBpbmtzY2FwZTp3aW5kb3cteD0iMTkyMCIgaW5rc2NhcGU6d2luZG93LXk9IjAiIGlua3NjYXBlOndpbmRvdy1tYXhpbWl6ZWQ9IjEiIGlua3NjYXBlOmN1cnJlbnQtbGF5ZXI9ImcxOTgiLz4mI3hhOyAgPGcgZmlsbD0ibm9uZSIgZmlsbC1ydWxlPSJldmVub2RkIiBpZD0iZzE5OCI+JiN4YTsgICAgPHBhdGggZD0ibSAxNzAuMzU0LDY5LjEwNyBoIDExLjU2MSBjIDUuMzQsMCAxMC44MzEsLTAuOTUxIDE1Ljg4NywtMi42NjQgMi40ODUsLTAuODQzIDUuMjczLC0yLjAxNSA3LjcyNCwtMy40OSAtMy4yMjgsLTQuMjE0IC00Ljg3NiwtOS41MzUgLTUuMzYsLTE0Ljc4IC0wLjY2LC03LjEzNSAwLjc4LC0xNi40MjEgNS42MDgsLTIyLjAwNSBsIDIuNDA0LC0yLjc4IDIuODY0LDIuMzAzIGMgNy4yMTEsNS43OTMgMTMuMjc2LDEzLjg4OSAxNC4zNDUsMjMuMTE4IDguNjgzLC0yLjU1NCAxOC44NzgsLTEuOTUgMjYuNTMxLDIuNDY3IGwgMy4xNCwxLjgxMiAtMS42NTIsMy4yMjYgQyAyNDYuOTMzLDY4Ljk0NiAyMzMuNCw3Mi44NiAyMjAuMTcsNzIuMTY3IGMgLTE5Ljc5Nyw0OS4zMDkgLTYyLjg5OCw3Mi42NTMgLTExNS4xNTcsNzIuNjUzIC0yNywwIC01MS43NywtMTAuMDkzIC02NS44NzYsLTM0LjA0NyBsIC0wLjIzMSwtMC4zOSAtMi4wNTUsLTQuMTgyIEMgMzIuMDgzLDk1LjY1NyAzMC40OTksODQuMTA2IDMxLjU3Myw3Mi41NjQgbCAwLjMyMywtMy40NTcgSCA1MS40NSIgZmlsbD0iIzM2NDU0OCIgaWQ9InBhdGgxNjYiIHNvZGlwb2RpOm5vZGV0eXBlcz0iY3NjY2NjY2NjY2NjY3NjY2NjY2MiLz4mI3hhOyAgICA8cGF0aCBkPSJNMjIxLjU3IDU0LjM4YzEuNTMzLTExLjkxNi03LjM4NC0yMS4yNzUtMTIuOTE0LTI1LjcxOS02LjM3MyA3LjM2OC03LjM2MyAyNi42NzggMi42MzUgMzQuODA4LTUuNTggNC45NTYtMTcuMzM3IDkuNDQ4LTI5LjM3NiA5LjQ0OEgzNS4zN2MtMS4xNyAxMi41NjcgMS4wMzYgMjQuMTQgNi4wNzUgMzQuMDQ1bDEuNjY3IDMuMDVhNTYuNTM2IDU2LjUzNiAwIDAgMCAzLjQ1NSA1LjE4NGM2LjAyNS4zODcgMTEuNTguNTIgMTYuNjYyLjQwOGguMDAyYzkuOTg3LS4yMiAxOC4xMzYtMS40IDI0LjMxMi0zLjU0YTEuNzYxIDEuNzYxIDAgMCAxIDEuMTUzIDMuMzI2Yy0uODIyLjI4Ni0xLjY3OC41NTItMi41NjIuODA1aC0uMDAzYy00Ljg2MyAxLjM4OS0xMC4wNzggMi4zMjMtMTYuODA2IDIuNzM4LjQuMDA3LS40MTYuMDYtLjQxOC4wNi0uMjI5LjAxNS0uNTE3LjA0OC0uNzQ3LjA2LTIuNjQ4LjE0OS01LjUwNi4xOC04LjQyOC4xOC0zLjE5NiAwLTYuMzQzLS4wNi05Ljg2Mi0uMjRsLS4wOS4wNmMxMi4yMSAxMy43MjQgMzEuMzAyIDIxLjk1NSA1NS4yMzQgMjEuOTU1IDUwLjY0OCAwIDkzLjYwOC0yMi40NTIgMTEyLjYzMi03Mi44NTcgMTMuNDk2IDEuMzg1IDI2LjQ2Ny0yLjA1NyAzMi4zNjctMTMuNTc1LTkuMzk4LTUuNDIzLTIxLjQ4NC0zLjY5NC0yOC40NDMtLjE5NiIgZmlsbD0iIzIyQTBDOCIgaWQ9InBhdGgxNjgiLz4mI3hhOyAgICA8cGF0aCBkPSJNMjIxLjU3IDU0LjM4YzEuNTMzLTExLjkxNi03LjM4NC0yMS4yNzUtMTIuOTE0LTI1LjcxOS02LjM3MyA3LjM2OC03LjM2MyAyNi42NzggMi42MzUgMzQuODA4LTUuNTggNC45NTYtMTcuMzM3IDkuNDQ4LTI5LjM3NiA5LjQ0OEg0NC4wNDhjLS41OTggMTkuMjQ2IDYuNTQ0IDMzLjg1NSAxOS4xOCA0Mi42ODdoLjAwM2M5Ljk4Ny0uMjIgMTguMTM2LTEuNCAyNC4zMTItMy41NGExLjc2MSAxLjc2MSAwIDAgMSAxLjE1MyAzLjMyNmMtLjgyMi4yODYtMS42NzguNTUyLTIuNTYyLjgwNWgtLjAwM2MtNC44NjMgMS4zODktMTAuNTI2IDIuNDQzLTE3LjI1NCAyLjg1OC0uMDAyIDAtLjE2My0uMTU1LS4xNjUtLjE1NSAxNy4yMzcgOC44NDIgNDIuMjMgOC44MSA3MC44ODUtMi4xOTcgMzIuMTMtMTIuMzQ0IDYyLjAyOS0zNS44NiA4Mi44OS02Mi43NTctLjMxNC4xNDItLjYyLjI4Ny0uOTE3LjQzNiIgZmlsbD0iIzM3QjFEOSIgaWQ9InBhdGgxNzAiLz4mI3hhOyAgICA8cGF0aCBkPSJNMzUuNjQ1IDg4LjE4NmMuOTEgNi43MzIgMi44OCAxMy4wMzUgNS44IDE4Ljc3NmwxLjY2NyAzLjA1YTU2LjQzMiA1Ni40MzIgMCAwIDAgMy40NTUgNS4xODRjNi4wMjYuMzg3IDExLjU4MS41MiAxNi42NjQuNDA4IDkuOTg3LS4yMiAxOC4xMzYtMS40IDI0LjMxMi0zLjU0YTEuNzYxIDEuNzYxIDAgMCAxIDEuMTUzIDMuMzI2Yy0uODIyLjI4Ni0xLjY3OC41NTItMi41NjIuODA1aC0uMDAzYy00Ljg2MyAxLjM4OS0xMC40OTYgMi4zODMtMTcuMjI0IDIuNzk5LS4yMzEuMDE0LS42MzQuMDE3LS44NjcuMDMtMi42NDYuMTQ4LTUuNDc1LjIzOS04LjM5OC4yMzktMy4xOTUgMC02LjQ2My0uMDYxLTkuOTgtLjI0IDEyLjIxIDEzLjcyNCAzMS40MiAyMS45ODUgNTUuMzUyIDIxLjk4NSA0My4zNiAwIDgxLjA4NC0xNi40NTggMTAyLjk3OS01Mi44MjJIMzUuNjQ1IiBmaWxsPSIjMUI4MUE1IiBpZD0icGF0aDE3MiIvPiYjeGE7ICAgIDxwYXRoIGQ9Ik00NS4zNjcgODguMTg2YzIuNTkyIDExLjgyIDguODIxIDIxLjA5OSAxNy44NjQgMjcuNDE4IDkuOTg3LS4yMiAxOC4xMzYtMS40IDI0LjMxMi0zLjU0YTEuNzYxIDEuNzYxIDAgMCAxIDEuMTUzIDMuMzI2Yy0uODIyLjI4Ni0xLjY3OC41NTItMi41NjIuODA1aC0uMDAzYy00Ljg2MyAxLjM4OS0xMC42MTUgMi4zODMtMTcuMzQ0IDIuNzk5IDE3LjIzNiA4Ljg0IDQyLjE1NyA4LjcxMyA3MC44MS0yLjI5MyAxNy4zMzQtNi42NiAzNC4wMTctMTYuNTc0IDQ4Ljk4NC0yOC41MTVINDUuMzY3IiBmaWxsPSIjMUQ5MUI0IiBpZD0icGF0aDE3NCIvPiYjeGE7ICAgIDxwYXRoIGQ9Im0gMTQ5Ljk0LDY3LjcxIGMgLTk5Ljk2LC00NS4xNTMzMzMgLTQ5Ljk4LC0yMi41NzY2NjcgMCwwIHogbSAzLjAwMiwwIGMgLTEwMS45NjEzMzMsLTQ1LjE1MzMzMyAtNTAuOTgwNjcsLTIyLjU3NjY2NyAwLDAgeiBtIDYuMDA2LDAgYyAtMTA1Ljk2NTMzMywtNDUuMTUzMzMzIC01Mi45ODI2NywtMjIuNTc2NjY3IDAsMCB6IiBmaWxsPSIjMjNhM2MyIiBpZD0icGF0aDE4OCIgc29kaXBvZGk6bm9kZXR5cGVzPSJjY2NjY2MiLz4mI3hhOyAgICA8cGF0aCBkPSJNOTYuNzA0IDEwMS40OTJhNS40NjggNS40NjggMCAxIDEtLjAwMiAxMC45MzUgNS40NjggNS40NjggMCAwIDEgLjAwMi0xMC45MzUiIGZpbGw9IiNEM0VDRUMiIGlkPSJwYXRoMTkwIi8+JiN4YTsgICAgPHBhdGggZD0ibSA5Ni43MDQsMTAzLjA0MyBjIDAuNSwwIDAuOTc3LDAuMDk0IDEuNDE3LDAuMjY1IC0xLjQxMDIzNCwwLjgxODY3IC0wLjgzMjYzNSwyLjk3NTYzIDAuNzk4LDIuOTggMC42MDUsMCAxLjEzLC0wLjMzNSAxLjQwMiwtMC44MzEgMS40ODQ3NywzLjU3Njc0IC0yLjU2ODkwOSw2LjkwNTk2IC01Ljc4ODg2Myw0Ljc1Njk1IC0zLjIxOTk1NCwtMi4xNDkwMSAtMS43MDA4MTQsLTcuMTY5NzkgMi4xNzE4NjMsLTcuMTcwOTUiIGZpbGw9IiMzNjQ1NDgiIGlkPSJwYXRoMTkyIiBzb2RpcG9kaTpub2RldHlwZXM9ImNjY2NzYyIvPiYjeGE7ICAgIDxwYXRoIGQ9Ik0xMTEuMjM3IDE0MC44OWMtMTMuNTQtNi40MjUtMjAuOTcxLTE1LjE2LTI1LjEwNi0yNC42OTQtNS4wMyAxLjQzNS0xMS4wNzUgMi4zNTMtMTguMSAyLjc0Ny0yLjY0Ni4xNDgtNS40My4yMjQtOC4zNS4yMjQtMy4zNjggMC02LjkxNy0uMS0xMC42NDMtLjI5NyAxMi40MTcgMTIuNDEgMjcuNjkyIDIxLjk2NCA1NS45NzYgMjIuMTM4IDIuMDg4IDAgNC4xNi0uMDQgNi4yMjMtLjExOCIgZmlsbD0iI0JERDlENyIgaWQ9InBhdGgxOTQiLz4mI3hhOyAgICA8cGF0aCBkPSJNOTEuMTYgMTI0Ljk5NGMtMS44NzMtMi41NDMtMy42OS01LjczOS01LjAyNi04LjgtNS4wMyAxLjQzNy0xMS4wNzcgMi4zNTUtMTguMTAzIDIuNzUgNC44MjYgMi42MTkgMTEuNzI3IDUuMDQ2IDIzLjEzIDYuMDUiIGZpbGw9IiNEM0VDRUMiIGlkPSJwYXRoMTk2Ii8+JiN4YTsgIDwvZz4mI3hhOzwvc3ZnPg==;" vertex="1" parent="Z96atvx6i4o4yFbFgXG3-1">
          <mxGeometry x="166.53999999999996" y="264" width="224" height="121" as="geometry" />
        </mxCell>
        <mxCell id="Z96atvx6i4o4yFbFgXG3-3" value="" style="shape=image;verticalLabelPosition=bottom;labelBackgroundColor=#ffffff;verticalAlign=top;aspect=fixed;imageAspect=0;image=data:image/svg+xml,PHN2ZyB4bWxucz0iaHR0cDovL3d3dy53My5vcmcvMjAwMC9zdmciIHhtbG5zOnhsaW5rPSJodHRwOi8vd3d3LnczLm9yZy8xOTk5L3hsaW5rIiB2ZXJzaW9uPSIxLjEiIGlkPSJMYXllcl8xIiB4PSIwcHgiIHk9IjBweCIgd2lkdGg9IjUwMHB4IiBoZWlnaHQ9IjUwMHB4IiB2aWV3Qm94PSIwIDAgNTAwIDUwMCIgZW5hYmxlLWJhY2tncm91bmQ9Im5ldyAwIDAgNTAwIDUwMCIgeG1sOnNwYWNlPSJwcmVzZXJ2ZSI+JiN4YTs8Zz4mI3hhOwk8cGF0aCBmaWxsPSIjRkVERDVDIiBkPSJNMzg2LjA5Miw4Ni44OTljLTE3LjExOCwxMS45MTUtNi4yOTcsMzYuODg5LDEuMzk2LDUyLjczMmMtMi43NzMtMS4xOTUtNS40NjEtMi42Mi03Ljg3My0zLjc2NiAgIGMxNC42MjYsMTcuODk2LDE1LjM1NCw0NC4zNTQsMzAuMjU3LDYyLjgzNWMyLjc4OSwzLjQ1NCw1LjYzMSw3LjE5NCw5LjUyNiw5Ljg3NWMtNC4yMjMtMS4yNjEtOC42OTQtMy40OTgtMTEuNDEyLTYuMTk5ICAgYzUuMjc0LDEwLjc3NiwxMi45MTUsMjAuODU0LDIxLjg1OSwyOS4zMWMtNS42OS0xLjY5NS0xMS4zNjYtNi40NzEtMTQuOTktMTAuMTY1bC0wLjA5NywwLjA5OCAgIGMtMC4zNzYtMC40NzYsNC43NTIsNy44MjksNi44MTYsMTMuMDFjNy45NDIsMTkuOTU0LDAuOTUzLDM4LjQ3NiwyMS4yODEsNTguNDI5Yy02LjEtMS4zNDYtMTEuNDktOC4yMjEtMTUuMjgzLTEzLjAxICAgYy0yLjQ4MywxMi4xODYsMTUuMTMzLDMyLjEwNiwyNC40NjgsMzcuODg0bDAuODE1LDAuMzI0YzAuOTkxLTQuODM0LDEuNzk1LTkuNzAyLDIuMzQ1LTE0LjYwMiAgIGMxLjExMS0xMC4wNjksMS40NjEtMjAuMjIyLDEuMDExLTMwLjM0N2MtMC40MDYtMTAuMTI0LTEuNDc3LTIwLjIyOC0zLjIwOC0zMC4yMThjLTEuNjU5LTEwLjAwNC0zLjk2Ni0xOS45MDQtNi44MzctMjkuNjMyICAgYy0xLjQyLTQuODcxLTIuOTkzLTkuNjk2LTQuNzI5LTE0LjQ2M2MtMC44NjktMi4zODMtMS43ODEtNC43NS0yLjcyNy03LjEwM2MtMC45MzUtMi4zNTgtMS45MTctNC42OTYtMi45MzktNy4wMiAgIGMtMi4wMzEtNC42MzYtNC4zNDEtOS4xODUtNi41OTQtMTMuNzY5Yy0yLjI2OC00LjU3MS00LjYxLTkuMTA2LTcuMDI4LTEzLjU5OWMtNC44MDgtOS4wMDctOS45NzEtMTcuODI0LTE1LjYwNy0yNi4zNzQgICBjNi40MjgsNy45ODIsMTIuMTIsMTYuNTUyLDE3LjQ3NCwyNS4zMDdjMi42NTYsNC4zOTMsNS4yMSw4Ljg0Nyw3LjcwNCwxMy4zMzNjMS4yNTEsMi4yMzgsMi40NTcsNC41MDUsMy42NTgsNi43NzIgICBjMS4yMDQsMi4yNjcsMi4zNzcsNC41NzYsMy40OTYsNi44OTljMS4xMTgsMi4zMjUsMi4xOTksNC42NzIsMy4yMjksNy4wMzhjMS4wMjUsMi4zNjksMS45OSw0Ljc2MSwyLjkyNiw3LjE2NiAgIGMxLjg2NCw0LjgxMywzLjU2Myw5LjY5LDUuMTA2LDE0LjYxM2MzLjA0NSw5Ljg2NCw1LjQyNCwxOS45MjgsNy4xODIsMzAuMTAxYzEuNjgxLDEwLjE4OCwyLjc1NywyMC40ODMsMy4wMjYsMzAuODE1ICAgYzAuMjIxLDEwLjMyNy0wLjIyOSwyMC42OTItMS43NjgsMzAuOTJjLTAuNzYzLDUuMTEyLTEuNzIyLDEwLjE5OS0zLjAxNCwxNS4yMDRjLTEuMjg5LDUuMDA2LTIuODMsOS45NDQtNC42ODksMTQuNzYxICAgYy0yLjQyLDYuMjI5LTUuMzU5LDEyLjI3LTguODYsMTcuOTM0bDAuMDQ4LDAuMDA2bC0xLjUxLDEyLjExNGMzLjc2LTMuNTU4LDkuNjA2LTE2LjMwNSwxMS41OTUtMjEuMDAzICAgYzIuODgxLTYuNzg2LDYuMDc2LTE0LjU2LDguMjY4LTIyLjMwM2wwLjI1MiwwLjA2OGMxNS42MDYtMTIuMzE1LDI5LjgxMi0yOC41MDQsMzMuNTkzLTQ4LjcwNmwtMC4zMTYtMC4wNjEgICBjLTIuODM5LDQuMzk5LTguNzcyLDcuODg1LTE0LjM0MSw5LjI3NmM2LjEyMi05LjUxLDExLjA0NS0xNy40MjEsOS45NjEtMjkuNDc5Yy0xLjMyNSw1LjU0NC01LjYzOSwxMC4wNDktMTAuOTQ1LDExLjQwOCAgIGMxMS45NjQtMjUuMjM1LDUuOTc1LTU1LjI5NS02LjExMS03OS4yODFjLTMuMDkzLTYuMTMzLTYuNTQ5LTExLjkxMS0xMC4yMS0xNy43MDRjMC4xNTQsNC4wMzQtMC4zNjcsOC4xNTktMS4zMTUsMTIuMjU3ICAgYy0yLjM3OC0xNS40MDYtOS42MS0yOS43NzgtMTYuOTU1LTQzLjQxMmMxLjA0MSw1LjY4MSwwLjkxNSwxMC45MSwwLjM0OCwxNi4zN2MtMi44NjctMTEuNjM4LTYuMjU2LTIzLjE2NC0xMi43OTgtMzMuMzMxICAgQzQyMy43OTEsMTA2LjEyNSw0MDMuNjQzLDc0LjY4LDM4Ni4wOTIsODYuODk5eiIvPiYjeGE7CTxwYXRoIGZpbGw9IiMyRTM5NzQiIGQ9Ik05My4yMDgsMTEzLjY4OWMxMS40NTIsMTcuNDMxLDM2LjcwNiw3LjI4MSw1Mi43NDksMC4wMTRjLTEuMjcsMi43NDEtMi43NjYsNS4zODktMy45NzUsNy43NjkgICBjMTguMjc5LTE0LjE0Miw0NC43NDgtMTQuMTYyLDYzLjYyLTI4LjU2M2MzLjUyOC0yLjY5Nyw3LjM0My01LjQzOCwxMC4xMjctOS4yNmMtMS4zNzQsNC4xODctMy43MjksOC41OTgtNi41MDIsMTEuMjQxICAgYzEwLjkxMy00Ljk4NCwyMS4xOTItMTIuMzUyLDI5Ljg4NS0yMS4wNjdjLTEuODQ5LDUuNjQzLTYuNzczLDExLjE4OS0xMC41NjMsMTQuNzEzbDAuMDk1LDAuMSAgIGMtMC40ODMsMC4zNjQsNy45NTUtNC41NDIsMTMuMTg5LTYuNDY3YzIwLjE1Ny03LjQwNSwzOC40ODcsMC4wNzcsNTguOTc3LTE5LjcxYy0xLjUwOSw2LjA2MS04LjUyNCwxMS4yNjctMTMuNDE0LDE0LjkzICAgYzEyLjExNSwyLjgwNywzMi40OTktMTQuMjY5LDM4LjUyNC0yMy40NDdsMC4zNDYtMC44MDdjLTQuODA1LTEuMTItOS42NS0yLjA1Mi0xNC41MzQtMi43MzRjLTEwLjAzNS0xLjM3OS0yMC4xNzQtMi0zMC4zMDctMS44MjIgICBjLTEwLjEzMSwwLjEzNi0yMC4yNjEsMC45MzUtMzAuMjk1LDIuNGMtMTAuMDQ0LDEuMzkxLTIwLjAwMiwzLjQzMi0yOS44MDMsNi4wNDFjLTQuOTA3LDEuMjktOS43NzIsMi43MzItMTQuNTg0LDQuMzQxICAgYy0yLjQwNSwwLjgwNS00Ljc5NywxLjY1My03LjE3NCwyLjUzNWMtMi4zODIsMC44NzEtNC43NDYsMS43OS03LjA5NiwyLjc1MWMtNC42ODgsMS45MDctOS4yOTcsNC4wOTMtMTMuOTQsNi4yMjMgICBjLTQuNjI5LDIuMTQ1LTkuMjI1LDQuMzY1LTEzLjc4MSw2LjY2MmMtOS4xMzQsNC41NjQtMTguMDg1LDkuNDktMjYuNzgyLDE0Ljg5N2M4LjE1LTYuMjEyLDE2Ljg2OS0xMS42NzMsMjUuNzY1LTE2Ljc5ICAgYzQuNDYyLTIuNTM3LDguOTgzLTQuOTcyLDEzLjUzNC03LjM0NWMyLjI3LTEuMTkyLDQuNTY5LTIuMzM3LDYuODY4LTMuNDc2YzIuMjk4LTEuMTQ1LDQuNjM4LTIuMjUzLDYuOTg5LTMuMzEyICAgYzIuMzU0LTEuMDU1LDQuNzI5LTIuMDcyLDcuMTIyLTMuMDM4YzIuMzk2LTAuOTYxLDQuODEzLTEuODYyLDcuMjQxLTIuNzMzYzQuODYxLTEuNzM1LDkuNzgtMy4zMDMsMTQuNzQ1LTQuNzE1ICAgYzkuOTQtMi43NzksMjAuMDY0LTQuODg5LDMwLjI4LTYuMzc0YzEwLjIyOS0xLjQwOSwyMC41NDktMi4yMDgsMzAuODg1LTIuMjAxYzEwLjMyOSwwLjA1NSwyMC42NzksMC43ODIsMzAuODYyLDIuNTkzICAgYzUuMDksMC45LDEwLjE0OSwxLjk5MywxNS4xMTgsMy40MmM0Ljk2OCwxLjQyMiw5Ljg2MywzLjA5NSwxNC42MjgsNS4wODJjNi4xNjMsMi41ODcsMTIuMTIzLDUuNjg2LDE3LjY5Miw5LjMzOGwwLjAwNy0wLjA0OCAgIGwxMi4wNjgsMS44MzRjLTMuNDU0LTMuODU0LTE2LjA0Mi0xMC4wNC0yMC42ODUtMTIuMTUzYy02LjcwNy0zLjA2My0xNC4zOTMtNi40NjMtMjIuMDczLTguODYybDAuMDc2LTAuMjQ5ICAgQzMxNy4yLDI5LjQ3LDMwMS4zOTcsMTQuODM3LDI4MS4zMDMsMTAuNTE4bC0wLjA2OSwwLjMxM2M0LjMyMiwyLjk1Nyw3LjY0OCw4Ljk4MSw4Ljg5LDE0LjU4NiAgIGMtOS4zNDItNi4zNzUtMTcuMTE3LTExLjUwOS0yOS4yMDItMTAuNzQ2YzUuNTA2LDEuNDcyLDkuODk1LDUuOTA1LDExLjExMiwxMS4yNDZjLTI0LjkwNy0xMi42MzYtNTUuMTE2LTcuNDUyLTc5LjQxNywzLjk4OCAgIGMtNi4yMTMsMi45MjctMTIuMDgxLDYuMjI4LTE3Ljk3LDkuNzMzYzQuMDM2LTAuMDQ3LDguMTQ2LDAuNTg1LDEyLjIxOCwxLjY0MmMtMTUuNDY0LDEuOTY2LTMwLjAyNCw4LjgxMS00My44NTEsMTUuNzg4ICAgYzUuNzA3LTAuODg4LDEwLjkzMS0wLjYyMiwxNi4zNzMsMC4wOWMtMTEuNzA5LDIuNTU2LTIzLjMyMiw1LjYzNC0zMy42NTksMTEuOTAzQzExMy40MzQsNzYuNTE3LDgxLjQ2Miw5NS44MTcsOTMuMjA4LDExMy42ODl6Ii8+JiN4YTsJPHBhdGggZmlsbD0iIzAwODM4MCIgZD0iTTEwMi45MTIsNDI0LjUyNWMxNy45ODQtMTAuNTYzLDkuMTE4LTM2LjI5NiwyLjY2Ny01Mi42ODRjMi42NzQsMS40MDQsNS4yNDMsMy4wMzMsNy41Niw0LjM2ICAgYy0xMy4yMDQtMTguOTY4LTExLjg5My00NS40MDUtMjUuMzI3LTY0Ljk3OGMtMi41MTYtMy42NTgtNS4wNjItNy42MDUtOC43MzgtMTAuNTc5YzQuMTEzLDEuNTgzLDguMzk4LDQuMTU3LDEwLjksNy4wNiAgIGMtNC40MjktMTEuMTUtMTEuMjcxLTIxLjc4Ny0xOS41MzctMzAuOTA3YzUuNTQyLDIuMTI5LDEwLjgzNCw3LjMyOCwxNC4xNjMsMTEuMjg5bDAuMTA0LTAuMDkxICAgYzAuMzM4LDAuNTAzLTQuMTM2LTguMTcxLTUuNzkzLTEzLjQ5NmMtNi4zODMtMjAuNTA1LDIuMDExLTM4LjQzNS0xNi43MTktNTkuODk0YzUuOTc2LDEuODExLDEwLjgyMiw5LjA4MSwxNC4yMzUsMTQuMTQ3ICAgYzMuNDEzLTExLjk1OC0xMi42MTUtMzMuMTc2LTIxLjQ3OS0zOS42NTVsLTAuNzg4LTAuMzg3Yy0xLjM1OSw0Ljc0My0yLjUzNSw5LjUzNS0zLjQ2MiwxNC4zNzggICBjLTEuODgyLDkuOTU0LTMuMDEzLDIwLjA0OS0zLjM0NSwzMC4xNzhjLTAuMzc0LDEwLjEyNS0wLjA4NSwyMC4yODEsMC44NzQsMzAuMzc1YzAuODgzLDEwLjEwMiwyLjQyLDIwLjE0OSw0LjUzMywzMC4wNyAgIGMxLjA0MSw0Ljk2NSwyLjIzOCw5Ljg5NiwzLjYwMiwxNC43ODRjMC42ODMsMi40NDIsMS40MSw0Ljg3MywyLjE3MSw3LjI5MWMwLjc1LDIuNDIzLDEuNTUsNC44MywyLjM5MSw3LjIyNSAgIGMxLjY2OSw0Ljc4LDMuNjIyLDkuNDkyLDUuNTE0LDE0LjIzNmMxLjkwNyw0LjczMiwzLjg5Niw5LjQzNSw1Ljk2LDE0LjEwMWM0LjEwMSw5LjM1LDguNTY5LDE4LjUzOCwxMy41MzIsMjcuNDk4ICAgYy01Ljc5Ni04LjQ1NC0xMC44MTItMTcuNDM4LTE1LjQ3NS0yNi41NzdjLTIuMzEtNC41ODYtNC41MTMtOS4yMjQtNi42NTUtMTMuODg2Yy0xLjA3NC0yLjMyOS0yLjEwMy00LjY4My0zLjEyNS03LjAzNSAgIGMtMS4wMjctMi4zNTQtMi4wMTctNC43NDYtMi45NTUtNy4xNDhjLTAuOTM1LTIuNDA0LTEuODMzLTQuODI3LTIuNjc4LTcuMjY1Yy0wLjgzOC0yLjQ0MS0xLjYxNy00LjktMi4zNjMtNy4zNyAgIGMtMS40ODgtNC45NDItMi44MDctOS45MzUtMy45NjYtMTQuOTYzYy0yLjI3Ny0xMC4wNjgtMy44NzYtMjAuMjg1LTQuODQ1LTMwLjU2M2MtMC44OTEtMTAuMjg3LTEuMTctMjAuNjM1LTAuNjQ1LTMwLjk1NyAgIGMwLjU3Ni0xMC4zMTMsMS44MjItMjAuNjEzLDQuMTQ0LTMwLjY5MmMxLjE1NS01LjAzOSwyLjUwMi0xMC4wMzcsNC4xNzctMTQuOTI3YzEuNjctNC44OTEsMy41ODctOS42OTYsNS44MTEtMTQuMzU1ICAgYzIuODk1LTYuMDI0LDYuMjktMTEuODIsMTAuMjE3LTE3LjE5OWwtMC4wNDgtMC4wMDlsMi40MzgtMTEuOTYyYy00LjAyMiwzLjI1Ni0xMC44MzUsMTUuNTE3LTEzLjE3OSwyMC4wNDcgICBjLTMuMzk2LDYuNTQ0LTcuMTc5LDE0LjA0OC05Ljk2MSwyMS42bC0wLjI0NS0wLjA4N2MtMTYuNTA4LDExLjA3Ny0zMS45MTcsMjYuMTI0LTM3LjI0Miw0NS45NzVsMC4zMSwwLjA4NSAgIGMzLjE2OC00LjE2OCw5LjM1NC03LjE4NywxNS4wMTMtOC4xNDZjLTYuODM2LDkuMDEtMTIuMzU0LDE2LjUxOS0xMi4yLDI4LjYyNWMxLjc0OC01LjQyNSw2LjM5NC05LjU4NSwxMS43OTEtMTAuNTMyICAgYy0xMy44NzEsMjQuMjQtMTAuMjE2LDU0LjY3MS0wLjAxMyw3OS41MTdjMi42MTEsNi4zNTMsNS42MTMsMTIuMzc5LDguODE3LDE4LjQzOGMwLjE1NS00LjAzNCwwLjk5NC04LjEwNiwyLjI1NS0xMi4xMiAgIGMxLjE4NSwxNS41NDQsNy4yODgsMzAuNDMsMTMuNTYyLDQ0LjU5Yy0wLjYtNS43NDUtMC4wNzEtMTAuOTQ5LDAuOTE0LTE2LjM0OWMxLjk2MywxMS44MjIsNC40NTQsMjMuNTc2LDEwLjE5MywzNC4yMTYgICBDNjYuODA2LDQwMi40NTIsODQuNDczLDQzNS4zNTcsMTAyLjkxMiw0MjQuNTI1eiIvPiYjeGE7CTxwYXRoIGZpbGw9IiNGNzkyMUUiIGQ9Ik00MTYuOTYyLDM4OC4wODljLTExLjA0OC0xNy42ODktMzYuNTI4LTguMTI0LTUyLjczNC0xLjIyN2MxLjMzMi0yLjcxMSwyLjg4OC01LjMyNCw0LjE1Mi03LjY3NiAgIGMtMTguNiwxMy43MTgtNDUuMDYzLDEzLjEzMS02NC4yNiwyNy4wOTVjLTMuNTksMi42MTMtNy40NjYsNS4yNjYtMTAuMzM3LDkuMDIyYzEuNDY5LTQuMTUyLDMuOTI1LTguNTA4LDYuNzU5LTExLjA4NyAgIGMtMTEuMDI1LDQuNzMxLTIxLjQ3MywxMS44NjEtMzAuMzYxLDIwLjM3NGMxLjk3Ny01LjU5OSw3LjAyOC0xMS4wMjksMTAuODk2LTE0LjQ2NmwtMC4wOTItMC4xMDMgICBjMC40OTItMC4zNTMtOC4wNTcsNC4zNTctMTMuMzM1LDYuMTYyYy0yMC4zMjEsNi45NC0zOC40NzUtMC45Ni01OS40MTMsMTguMzVjMS42NDctNi4wMjMsOC43ODEtMTEuMDY3LDEzLjc1NC0xNC42MTYgICBjLTEyLjA0OC0zLjA4Ni0zMi44MiwxMy41MTgtMzkuMDUzLDIyLjU1NWwtMC4zNjUsMC43OThjNC43NzgsMS4yMjksOS42MDIsMi4yNzMsMTQuNDY4LDMuMDY3ICAgYzEwLjAwMSwxLjYxLDIwLjEyMywyLjQ2MywzMC4yNTcsMi41MThjMTAuMTMyLDAuMDk4LDIwLjI3Ni0wLjQ2OCwzMC4zNDItMS43MDNjMTAuMDczLTEuMTU4LDIwLjA3NS0yLjk3MSwyOS45MzQtNS4zNTQgICBjNC45MzUtMS4xNzgsOS44MzMtMi41MDgsMTQuNjgtNC4wMDZjMi40MjQtMC43NDgsNC44MzQtMS41NDEsNy4yMy0yLjM2OWMyLjQwMS0wLjgxNSw0Ljc4NS0xLjY4MSw3LjE1Ny0yLjU4NiAgIGM0LjczLTEuNzk4LDkuMzg5LTMuODc5LDE0LjA3OC01LjkwMWM0LjY3OS0yLjAzNyw5LjMyNC00LjE1MSwxMy45MzMtNi4zNDNjOS4yMzUtNC4zNTQsMTguMjk5LTkuMDczLDI3LjExNy0xNC4yNzcgICBjLTguMjkxLDYuMDIxLTE3LjEzNCwxMS4yODEtMjYuMTQ1LDE2LjE5MWMtNC41MTksMi40MzYtOS4wOTUsNC43NjUtMTMuNjk4LDcuMDMyYy0yLjI5NywxLjE0MS00LjYyMywyLjIzMi02Ljk0NSwzLjMxNyAgIGMtMi4zMjUsMS4wOTItNC42ODksMi4xNDYtNy4wNjQsMy4xNWMtMi4zNzksMS4wMDEtNC43NzUsMS45NjQtNy4xOSwyLjg3M2MtMi40MTYsMC45MDYtNC44NTQsMS43NTItNy4zMDEsMi41NjYgICBjLTQuOTAyLDEuNjIzLTkuODU0LDMuMDc4LTE0Ljg1MSw0LjM3NWMtMTAuMDAyLDIuNTQ5LTIwLjE3MSw0LjQyNi0zMC40MTksNS42NzdjLTEwLjI1OCwxLjE3Mi0yMC41OTQsMS43MzYtMzAuOTI3LDEuNDg5ICAgYy0xMC4zMjUtMC4yOTMtMjAuNjU2LTEuMjU2LTMwLjc5NC0zLjMwMWMtNS4wNjgtMS4wMTgtMTAuMTAxLTIuMjI3LTE1LjAzNi0zLjc2OGMtNC45MzYtMS41MzUtOS43OTEtMy4zMi0xNC41MDctNS40MTYgICBjLTYuMTAzLTIuNzI5LTExLjk4OS01Ljk2Mi0xNy40NzQtOS43NDJsLTAuMDA4LDAuMDQ5bC0xMi4wMjQtMi4xMWMzLjM2NSwzLjkzMiwxNS44MDgsMTAuNDA1LDIwLjQsMTIuNjI0ICAgYzYuNjM1LDMuMjE1LDE0LjI0LDYuNzkzLDIxLjg2NCw5LjM2N2wtMC4wODEsMC4yNDdjMTEuNTI0LDE2LjIsMjYuOTg2LDMxLjE5MSw0Ni45NzcsMzUuOTcybDAuMDc2LTAuMzExICAgYy00LjI1Mi0zLjA1Ni03LjQzOS05LjE1NC04LjU1Mi0xNC43ODdjOS4xOTIsNi41ODgsMTYuODQ5LDExLjg5OSwyOC45NDgsMTEuNDE1Yy01LjQ3Mi0xLjU5OS05Ljc1Ny02LjEzMS0xMC44NTItMTEuNDk5ICAgYzI0LjYxMSwxMy4yMDUsNTQuOTMyLDguNzE3LDc5LjQ4Ni0yLjE2MmM2LjI4LTIuNzg0LDEyLjIyMi01Ljk0OSwxOC4xOS05LjMxOGMtNC4wMzYtMC4wNDUtOC4xMzEtMC43NzItMTIuMTc4LTEuOTIyICAgYzE1LjUwNi0xLjYxLDMwLjIyLTguMTE5LDQ0LjIwMi0xNC43NzdjLTUuNzI2LDAuNzU4LTEwLjk0MiwwLjM3MS0xNi4zNjYtMC40NjVjMTEuNzY1LTIuMjg1LDIzLjQ0NS01LjA5OCwzMy45MjUtMTEuMTI2ICAgQzM5NS44ODcsNDI0Ljc4Niw0MjguMjk1LDQwNi4yMjUsNDE2Ljk2MiwzODguMDg5eiIvPiYjeGE7PC9nPiYjeGE7PC9zdmc+;" vertex="1" parent="Z96atvx6i4o4yFbFgXG3-1">
          <mxGeometry x="220" y="63" width="83.54" height="83.54" as="geometry" />
        </mxCell>
        <mxCell id="Z96atvx6i4o4yFbFgXG3-30" value="" style="shape=image;verticalLabelPosition=bottom;labelBackgroundColor=#ffffff;verticalAlign=top;aspect=fixed;imageAspect=0;image=data:image/svg+xml,PHN2ZyB4bWxuczpkYz0iaHR0cDovL3B1cmwub3JnL2RjL2VsZW1lbnRzLzEuMS8iIHhtbG5zOmNjPSJodHRwOi8vY3JlYXRpdmVjb21tb25zLm9yZy9ucyMiIHhtbG5zOnJkZj0iaHR0cDovL3d3dy53My5vcmcvMTk5OS8wMi8yMi1yZGYtc3ludGF4LW5zIyIgeG1sbnM6c3ZnPSJodHRwOi8vd3d3LnczLm9yZy8yMDAwL3N2ZyIgeG1sbnM9Imh0dHA6Ly93d3cudzMub3JnLzIwMDAvc3ZnIiB4bWxuczpzb2RpcG9kaT0iaHR0cDovL3NvZGlwb2RpLnNvdXJjZWZvcmdlLm5ldC9EVEQvc29kaXBvZGktMC5kdGQiIHhtbG5zOmlua3NjYXBlPSJodHRwOi8vd3d3Lmlua3NjYXBlLm9yZy9uYW1lc3BhY2VzL2lua3NjYXBlIiB3aWR0aD0iNjYwLjE3NzA2Mjk4ODI4MTIiIGhlaWdodD0iMTU3LjAwNzYyOTM5NDUzMTI1IiB2aWV3Qm94PSItMjM5LjM3NDI1MjMxOTMzNTk0IDE3Mi4zMDQ2MjY0NjQ4NDM3NSA2NjAuMTc3MDYyOTg4MjgxMiAxNTcuMDA3NjI5Mzk0NTMxMjUiIHZlcnNpb249IjEuMSIgaWQ9InN2ZzI2MSIgaW5rc2NhcGU6dmVyc2lvbj0iMS4wLjIgKDM5NGRlNDc1NDcsIDIwMjEtMDMtMjYpIiBzb2RpcG9kaTpkb2NuYW1lPSJkb2NrZXJfbmFtZS5zdmciPiYjeGE7ICA8ZGVmcyBpZD0iZGVmczI1NSIvPiYjeGE7ICA8c29kaXBvZGk6bmFtZWR2aWV3IGlkPSJiYXNlIiBwYWdlY29sb3I9IiNmZmZmZmYiIGJvcmRlcmNvbG9yPSIjNjY2NjY2IiBib3JkZXJvcGFjaXR5PSIxLjAiIGlua3NjYXBlOnBhZ2VvcGFjaXR5PSIwLjAiIGlua3NjYXBlOnBhZ2VzaGFkb3c9IjIiIGlua3NjYXBlOnpvb209IjAuMzUiIGlua3NjYXBlOmN4PSI0MDAiIGlua3NjYXBlOmN5PSI1NjAiIGlua3NjYXBlOmRvY3VtZW50LXVuaXRzPSJtbSIgaW5rc2NhcGU6Y3VycmVudC1sYXllcj0ibGF5ZXIxIiBpbmtzY2FwZTpkb2N1bWVudC1yb3RhdGlvbj0iMCIgc2hvd2dyaWQ9ImZhbHNlIiBpbmtzY2FwZTp3aW5kb3ctd2lkdGg9IjE5MjAiIGlua3NjYXBlOndpbmRvdy1oZWlnaHQ9IjEwNDMiIGlua3NjYXBlOndpbmRvdy14PSIxOTIwIiBpbmtzY2FwZTp3aW5kb3cteT0iMCIgaW5rc2NhcGU6d2luZG93LW1heGltaXplZD0iMSIvPiYjeGE7ICA8bWV0YWRhdGEgaWQ9Im1ldGFkYXRhMjU4Ij4mI3hhOyAgICA8cmRmOnJkZj4mI3hhOyAgICAgIDxjYzp3b3JrIHJkZjphYm91dD0iIj4mI3hhOyAgICAgICAgPGRjOmZvcm1hdD5pbWFnZS9zdmcreG1sPC9kYzpmb3JtYXQ+JiN4YTsgICAgICAgIDxkYzp0eXBlIHJkZjpyZXNvdXJjZT0iaHR0cDovL3B1cmwub3JnL2RjL2RjbWl0eXBlL1N0aWxsSW1hZ2UiLz4mI3hhOyAgICAgICAgPGRjOnRpdGxlLz4mI3hhOyAgICAgIDwvY2M6d29yaz4mI3hhOyAgICA8L3JkZjpyZGY+JiN4YTsgIDwvbWV0YWRhdGE+JiN4YTsgIDxnIGlua3NjYXBlOmxhYmVsPSJMYXllciAxIiBpbmtzY2FwZTpncm91cG1vZGU9ImxheWVyIiBpZD0ibGF5ZXIxIj4mI3hhOyAgICA8cGF0aCBkPSJtIC0xNDAuMDQ5MjUsMjI0LjU5ODYgdiAtNDIuMjc2NDkgYyAwLC01LjU1NTIyIDMuNDcyNjUsLTEwLjAxNzQ4IDkuMjI0MjQsLTEwLjAxNzQ4IGggMS41OTE2NCBjIDUuNzQ5LDAgOS4yMDYxNSw0LjQ2NzQzIDkuMjA2MTUsMTAuMDE3NDggdiA4OS4wMDQ5IGMgMCwyMS43MDQxIC0xMC43MjI4NiwzOC45NzQzNyAtMjkuNDA5MDYsNDkuOTc2MjggLTguNTU5OCw1LjA3MTM0IC0xOC4zMzA2NCw3LjczNjEyIC0yOC4yNzk5Miw3LjcxMjcxIGggLTMuOTcxMzQgYyAtMjEuNzA5MjcsMCAtMzguOTU2MjcsLTEwLjczMDYyIC00OS45NzYyNywtMjkuNDAzODkgLTUuMDc4NTEsLTguNTU4NTUgLTcuNzQyOTcsLTE4LjMzMzI4IC03LjcxMDEzLC0yOC4yODUxIHYgLTMuOTY2MTcgYyAwLC0yMS43MTE4NSAxMC43MjgwMywtMzguOTcxNzggMjkuMzk4NzIsLTQ5Ljk5NDM2IDguNTU4MjIsLTUuMDgxNzggMTguMzM0NDcsLTcuNzQ3MyAyOC4yODc2OCwtNy43MTI3MSBoIDMuOTcxMzQgYyAxNC42OTE2MSwwIDI3LjE1NTk2LDUuNjk0NzUgMzcuNjY2OTUsMTQuOTQ0ODMgeiBtIC03OS4zMDUyNCw0NC43NDE0NSBjIDAsMTUuNjc4NjMgNy41OTkwMiwyNy40NjYwMyAyMS4zMzcyLDM0Ljk4NDk1IDUuNTU1MjIsMy4wMzg1NyAxMS41ODU4Niw0LjY3MTU1IDE3LjkyMzk3LDQuNjcxNTUgMTUuMzg5MjQsMCAyNi44MDQ1NywtNy4yNjA1NCAzNC42Nzc0NywtMjAuMzAxMDkgMy42NjEyOCwtNi4wNjY4MSA1LjM2NjYsLTEyLjcwNDY1IDUuMzY2NiwtMTkuNzYxMDcgMCwtMTMuNTkwOSAtNi40MzM3MiwtMjQuMTk3NDkgLTE3LjM4NjU0LC0zMi4wNzU1NiAtNi42NDA0MiwtNC43NzQ5IC0xNC4xMTU0MSwtNy4xNzAxIC0yMi4yNjczNywtNy4xNzAxIC0xNi43NzQxNywwIC0yOC44NDU3OSw4LjQ3NDkzIC0zNi4wOTA4MiwyMy41MjgyOCAtMi40NDQzLDUuMDkwMTIgLTMuNTYwNTEsMTAuNDkyODkgLTMuNTYwNTEsMTYuMTIzMDQgeiBtIDE2OC43ODU1NjUsLTU5LjY4NjI4IGggMi43NzUwMjQgYyAyMy4xOTc1NSwwIDQwLjgzOTg4NDIsMTEuMjUyNTUgNTIuMDIwMDgwMiwzMS41MDE5NiA0LjQ3MDAxMTQsOC4xMDAyOCA2Ljg2MjYyOTgsMTYuOTQyMTEgNi44NjI2Mjk4LDI2LjIwNTExIHYgMy45NjYxNyBjIDAsMjEuNzA0MSAtMTAuNzAyMTg4NjcsMzguOTk3NjIgLTI5LjQxNjgwOSw0OS45Nzg4NiAtOC42NjM1NTMsNS4wODIzOCAtMTguMjM0MDI5LDcuNzEwMTMgLTI4LjI3NDc1OSw3LjcxMDEzIGggLTMuOTY2MTY2IGMgLTIxLjcwOTI3LDAgLTM4Ljk2MTQ0NiwtMTAuNzMwNjIgLTQ5Ljk3NjI3NSwtMjkuNDAzODkgLTUuMDgwOTgsLTguNTU3ODggLTcuNzQ4MTEsLTE4LjMzMjU4IC03LjcxNzg4LC0yOC4yODUxIHYgLTMuOTY2MTcgYyAwLC0yMS43MTQ0MyAxMC43NzE5NTQsLTM4LjkxNzUyIDI5LjM5NjE0LC00OS45ODkxOSA4LjY1ODM4NywtNS4xNDQzOSAxOC4yMzY2MTMsLTcuNzE3ODggMjguMjk4MDE1LC03LjcxNzg4IHogbSAtMzcuNjcyMTE5LDU5LjY4NjI4IGMgMCwxNS4yMTg3MSA3LjQ2NzI0NCwyNi40MTQ0MSAyMC4zMjE3NTcsMzQuMjg3MzEgNi4wMzU4MDcsMy42OTQ4NyAxMi42ODM5OCw1LjM2OTE5IDE5LjczNTIyOSw1LjM2OTE5IDE1LjAzNzg0MiwwIDI2LjE1MzQ0MiwtNy42MjQ4NiAzMy44ODk0MDQsLTIwLjMxNjU5IDMuNjg5Njk3LC02LjA1MTMxIDUuMzU4ODQ2LC0xMi42OTk0OSA1LjM1ODg0NiwtMTkuNzQ1NTcgMCwtMTQuMTUxNTkgLTYuODE2MTIxLC0yNC45NjIzIC0xOC40NjkxNTcsLTMyLjc5NjQ1IC02LjM4NDYyMywtNC4yOTY4OSAtMTMuNDkyNzE2LC02LjQ0OTIxIC0yMS4xODIxNjksLTYuNDQ5MjEgLTE2Ljc3NDE3LDAgLTI4Ljg0NTc4NSw4LjQ3NDkzIC0zNi4wODgyMzcsMjMuNTI4MjggLTIuNDQ5NDYyLDUuMDkwMTIgLTMuNTY1NjczLDEwLjQ5Mjg5IC0zLjU2NTY3MywxNi4xMjMwNCB6IE0gOTQuMzIxNDU1LDIzMS4yODgxMSBjIC0zLjAyMzA3MiwtMS40MTU5MyAtOC42ODE2NDEsLTEuODg2MTkgLTExLjk0NzU5MSwtMi4wMTAyMSAtMTYuNzI3NjYyLC0wLjYzMDQ1IC0yOC44MzAyODIsOC43OTAxNiAtMzUuOTMwNjI0LDIzLjU0NjM2IC0yLjQ1MjA0Niw1LjA5MDEzIC0zLjU3MDg0MSwxMC40Nzc0IC0zLjU3MDg0MSwxNi4xMTAxMyAwLDE3LjE0ODgzIDkuMDA0NjE4LDI5LjE1NTg1IDI0LjMxMTE3NywzNi40NzU4MSA1LjU5MTM5LDIuNjcxNjcgMTIuODEwNTg4LDMuMTc4MSAxOC45MjEzMjYsMy4xNzgxIDUuMzc0MzQ5LDAgMTIuOTcwNzg0LC0zLjI5MTc5IDE3Ljc0MDUxOCwtNS41NTc4IGwgMC44MjY4MiwtMC4zOTI3NCBoIDMuNzAyNjIgbCAwLjQwODI0LDAuMDgyNyBjIDQuNTUyNywwLjk0ODI3IDcuOTg5MTgsMy44MzQzOSA3Ljk4OTE4LDguNzMzMzIgdiAxLjk4MTc5IGMgMCwxMi4xOTA0NyAtMjIuMjc3NzA5LDE0Ljk4MSAtMzAuNzc4NDgyLDE1LjU3NTI4IC0yOS45OTgxNjksMi4wNzQ4MSAtNTIuNDMzNDkyLC0xNC4zOTk2NCAtNjAuOTg1OTQyLC00My4wMTI4OCAtMS40ODU2OTcsLTQuOTY4NjkgLTIuMTU0OTA3LC05LjkwMzc5IC0yLjE1NDkwNywtMTUuMDgxNzcgdiAtMy45NjEgYyAwLC0yMS43MTE4NSAxMC43NzQ1MzYsLTM4LjkwOTc2IDI5LjM5NjEzOCwtNDkuOTcxMTEgOC42NTgzODcsLTUuMTQxOCAxOC4yMzQwMywtNy43MjU2MiAyOC4yOTI4NDcsLTcuNzI1NjIgaCAzLjk2ODc1IGMgMTAuNjcxMTgzLDAgMjAuNTAwMDM2LDMuMDMwODIgMjkuMzEwODc2LDkuMDQ4NTQgbCAwLjcyMzQ3LDAuNTAxMjYgMC40NTczMywwLjc1NDQ4IGMgMC45NTA4NSwxLjU3NjEzIDEuNzY5OTIsMy40MDAzMSAxLjc2OTkyLDUuMjc2MTYgdiAxLjk4MTc5IGMgMCw1LjExMDggLTMuODI0MDYsNy44NTk5OSAtOC40Mzg3Niw4Ljc0ODgyIGwgLTAuMzgyNDEsMC4wNjcyIGggLTEuMTgzMzkgYyAtMi45ODY4OSwwIC05Ljc3OTc2MiwtMy4wOTI4MyAtMTIuNDQ2MjY1LC00LjM0ODU3IHogbSA2NC45NDE3NzUsMTMuNTU3MzEgYyA3Ljc3NzMsLTcuNzg3NjMgMTUuNTgwNDQsLTE1LjU1OTc3IDIzLjQ3NDAyLC0yMy4yMTgyMiAyLjE5ODgzLC0yLjEzNjgyIDEwLjUyNjQ5LC0xMS4xODAxOSAxMy44MDUzNSwtMTEuMTgwMTkgaCAzLjU4NjM1IGwgMC40MDgyNCwwLjA4NTMgYyA0LjU2ODIsMC45NDgyNiA3Ljk4OTE4LDMuODM5NTYgNy45ODkxOCw4Ljc0ODgyIHYgMS45NzkyMSBjIDAsMy4zNDg2MyAtMy45MjIyNCw3LjIzOTg3IC02LjA4NDksOS41MzE3MiAtNC41OTkyLDQuODc1NjcgLTkuNDQxMjgsOS41OTExNCAtMTQuMTQ5MDEsMTQuMzY2MDUgbCAtMjQuMTg5NzQsMjQuNTU2NjQgYyAxMC40MTUzOSwxMC40Mzg2NCAyMC44MjA0NCwyMC44ODUwMyAzMS4xNTA1NiwzMS40MDM3NiAyLjg2NTEyLDIuOTAzMzcgNS43MDgyOCw1LjgyODMzIDguNTI5MTksOC43NzQ2NiAwLjk5NDc3LDEuMDQ2NDUgMi40NjIzOCwyLjM0ODcgMy4yOTY5NiwzLjc5ODIyIDAuODk2NTksMS4zNTkwOSAxLjQ0Njk0LDIuODkxMyAxLjQ0Njk0LDQuNTI2ODYgdiAyLjA2NzA1IGwgLTAuMTE2MjcsMC40NzgwMSBjIC0xLjEyMzk3LDQuNTY4MiAtNC4wMjMwMSw4LjI1MjczIC05LjA4NDcyLDguMjUyNzMgaCAtMS41OTQyMiBjIC0zLjMxMjQ2LDAgLTcuMDUzODMsLTMuNzQ2NTUgLTkuMzIyNDMsLTUuODg4NTMgLTQuNjc2NzEsLTQuNDA4IC05LjE5MDY1LC05LjA0MzM4IC0xMy43NzQzNSwtMTMuNTQ2OTggbCAtMTUuMzcxMTUsLTE1LjA4OTUyIHYgMjQuMTE3MzkgYyAwLDUuNTU1MjIgLTMuNDc3ODMsMTAuMDIwMDYgLTkuMjIxNjYsMTAuMDIwMDYgaCAtMS41NzYxMyBjIC01Ljc1MTU5LDAgLTkuMjI0MjUsLTQuNDY0ODQgLTkuMjI0MjUsLTEwLjAyMDA2IFYgMTgyLjcwOTY4IGMgMCwtNS41NTUyMSAzLjQ3NTI0LC05Ljk5OTM5IDkuMjI0MjUsLTkuOTk5MzkgaCAxLjU3NjEzIGMgNS43NDM4MywwIDkuMjIxNjYsNC40NDQxOCA5LjIyMTY2LDkuOTk5MzkgeiBtIDI0OS41Mzc3NCwtMzQuMzk4NDEgaCAxLjk4OTU0IGMgNi4wMDQ4LDAgMTAuMDEyMzEsNC4wNDYyNiAxMC4wMTIzMSwxMC4wMTc0NyAwLDguMjg4OSAtNy45MjQ1OCwxMC40MTAyMiAtMTQuNzc5NDYsMTAuNDEwMjIgLTguOTkxNywwIC0xNy41Nzc3NCw1LjQ0NDExIC0yMy43NzYzMywxMS41NDk2OCAtNy43MjgyMSw3LjYxOTY5IC0xMS4xMTA0MywxNy4zNzg3OSAtMTEuMTEwNDMsMjguMTA2ODEgdiA0OC40Njk5MSBjIDAsNS41NTUyMiAtMy40NzAwNywxMC4wMTQ5IC05LjIyNDI1LDEwLjAxNDkgaCAtMS41ODEyOSBjIC01Ljc1NDE3LDAgLTkuMjIxNjYsLTQuNDU3MSAtOS4yMjE2NiwtMTAuMDE0OSB2IC01MS4yNTI2OCBjIDAsLTE5LjY4MDk3IDkuNTgwODEsLTM1Ljc0NzE3IDI1LjU1Mzk5LC00Ny4wMTUyMiA5LjUzNjg5LC02LjczMDg2IDIwLjQ2MTI5LC0xMC4yODM2MSAzMi4xMzc1OCwtMTAuMjgzNjEgeiBtIC0xNDIuMzAxNCw5Ni4wNTYxNSBjIDcuMjg2MzgsMi41NDUwNiAxNS41OTMzNywyLjE4MDc0IDIzLjA2ODM2LDAuODc4NSAzLjgyNDA2LC0xLjYyNTIzIDEzLjYwMTI0LC01Ljg5MTEyIDE3LjE5NzkyLC01LjI2NTgzIGwgMC41NjA2OSwwLjA5NTYgMC41MTY3NiwwLjI1MzIxIGMgMi4xOTYyNSwxLjA2NDU0IDQuMjkxNzMsMi41NzA5MSA1LjQxMzExLDQuODA1OTEgMi42Miw1LjIzNzQxIDEuMzYxNjcsMTAuNTAzMjQgLTMuNzg1MywxMy40NzcyMiBsIC0xLjcxMzA3LDAuOTg5NiBjIC0xOC45OTEwOSwxMC45NjA1NyAtMzkuMTkxNDEsOS40NDEyOCAtNTguMTIzMDcsLTAuNzk1ODIgLTkuMDUxMTMsLTQuODkzNzUgLTE1Ljk3NTc3LC0xMi4xNTY4OCAtMjEuMDgzOTgsLTIxLjAxMTYzIGwgLTEuMTkzNzMsLTIuMDY5NjUgYyAtMTIuMTkzMDUsLTIxLjExNDk5IC0xMC41NDcxNiwtNDMuMzI1NTIgMy4yMDM5NCwtNjMuNDA0MzkgNC43NDY0OCwtNi45NDAxNSAxMC45NTAyNCwtMTIuMzAxNTggMTguMjAzMDIsLTE2LjQ5NTEyIGwgMi43NDQwMiwtMS41ODM4OCBjIDE3Ljg4NTIxLC0xMC4zMjQ5NSAzNy4wNTQ1OSwtOS42MTY5OSA1NS40MjI5NywtMC41NTU1MiA5Ljg3Nzk1LDQuODczMDggMTcuODgwMDUsMTIuMTM2MjEgMjMuMzkzOTMsMjEuNjg4NTkgbCAwLjk5MjE4LDEuNzIwODMgYyA0LjAwNDkzLDYuOTQwMTQgLTEuMTgzMzksMTIuOTg2MjkgLTYuNTM5NjUsMTcuMTIwNCAtNi4yMTY2Nyw0Ljc5NTU3IC0xMi40OTI3OCwxMC41Njc4MyAtMTguNDUxMDcsMTUuNzA5NjQgLTEzLjI4NjAxLDExLjQ2OTU4IC0yNi41NTEzNSwyMi45NjUgLTM5LjgyNzAzLDM0LjQ0MjM0IHogbSAtMTcuMTk1MzMsLTEyLjA3Njc4IGMgMTQuODU2OTgsLTEyLjczODI0IDI5LjcxOTEyLC0yNS40ODk0IDQ0LjUzNzMzLC0zOC4yODE5IDUuMDY0MywtNC4zNjY2NiAxMC42MTY5MywtOC44OTg2OSAxNS42Mzk4OCwtMTMuNDkwMTQgLTQuMDMwNzYsLTUuMDc5NzkgLTEwLjc2NDIsLTguNzQxMDcgLTE2LjQ4NDc4LC0xMC45MjQ0IC0xMS41NDk2OSwtNC40MDAyNCAtMjIuOTM2NTksLTIuOTIyMyAtMzMuNTI3NjcsMy4xOTEwMiAtMTMuODYyMjEsOC4wMDQ2OCAtMTkuNzY2MjQsMjAuNzUwNjggLTE5LjI0OTQ3LDM2LjYxMjc2IDAuMjA2Nyw2LjI0NzY4IDEuODg2MTgsMTIuMjY3OTggNS4yMDEyMywxNy41ODI5IDEuMTY3ODksMS44NzMyNyAyLjQ3MjcyLDMuNjMyODYgMy44ODM0OCw1LjMwOTc2IHoiIGZpbGw9IiMzNjQ1NDgiIGlkPSJwYXRoMTY2IiBzb2RpcG9kaTpub2RldHlwZXM9ImNzc3Nzc2Njc2Njc2Njc2NzY3Njc2NzY3Nzc2Nzc2Nzc2Njc2Nzc2NzY3Njc2NzY2Njc2Nzc2NjY3NzY2Nzc2Nzc2NjY3NzY2NzY2Njc2Njc3NjY2NjY2NzY2Nzc2NjY3Nzc3Nzc3NzY2Njc3Njc3Nzc3NzY2NjY2NjY2NjY2NjY2NjY2NzY2NjY2NjY2NjY2NjY2MiIHN0eWxlPSJzdHJva2Utd2lkdGg6Mi41ODM4MiIvPiYjeGE7ICA8L2c+JiN4YTs8L3N2Zz4=;" vertex="1" parent="Z96atvx6i4o4yFbFgXG3-1">
          <mxGeometry x="245" y="288.12" width="67.66" height="16.13" as="geometry" />
        </mxCell>
        <mxCell id="Z96atvx6i4o4yFbFgXG3-16" value="WPS Request" style="edgeStyle=orthogonalEdgeStyle;rounded=0;orthogonalLoop=1;jettySize=auto;html=1;entryX=0;entryY=0.25;entryDx=0;entryDy=0;startArrow=none;startFill=0;endArrow=blockThin;endFill=1;endSize=8;verticalAlign=bottom;strokeWidth=2;strokeColor=#4D4D4D;fontStyle=1;fontSize=13;startSize=8;spacing=2;spacingBottom=0;spacingTop=0;fontColor=#374548;" edge="1" parent="1" target="Z96atvx6i4o4yFbFgXG3-7">
          <mxGeometry relative="1" as="geometry">
            <mxPoint x="940" y="719" as="sourcePoint" />
            <mxPoint x="1083.3180392156862" y="669" as="targetPoint" />
          </mxGeometry>
        </mxCell>
        <mxCell id="Z96atvx6i4o4yFbFgXG3-17" value="WPS Response" style="edgeStyle=orthogonalEdgeStyle;rounded=0;orthogonalLoop=1;jettySize=auto;html=1;exitX=0;exitY=0.75;exitDx=0;exitDy=0;startArrow=none;startFill=0;endArrow=blockThin;endFill=1;startSize=8;endSize=8;verticalAlign=top;strokeWidth=2;strokeColor=#4D4D4D;fontStyle=1;fontSize=13;spacing=2;spacingBottom=0;spacingTop=0;fontColor=#374548;" edge="1" parent="1" source="Z96atvx6i4o4yFbFgXG3-7">
          <mxGeometry relative="1" as="geometry">
            <mxPoint x="940" y="737" as="targetPoint" />
          </mxGeometry>
        </mxCell>
      </root>
    </mxGraphModel>
  </diagram>
</mxfile>
